<?xml version="1.0" encoding="UTF-8"?>
<svg width="1200pt" height="1200pt" version="1.1" viewBox="0 0 1200 1200" xmlns="http://www.w3.org/2000/svg">
 <path d="m433.31 358.92c28.734-53.391-34.5-178.5 50.812-197.9 19.312-4.4062 39.562-1.5 57.797 6.1875 160.74 67.734 291.24 246.1 345 501.32-12.047 2.5781-22.781 6.5625-30.75 13.781-117.05-138.66-253.78-252.19-422.86-323.34zm692.9 122.63c-73.875 13.734-156.28 79.312-175.5 159.79-0.23438 0.046875-0.46875 0.09375-0.70313 0.14062 4.5938-81.516 49.031-177.79 122.29-208.31 5.9531-2.4844 8.7656-9.2812 6.2812-15.234s-9.2812-8.7656-15.281-6.2812c-85.969 35.766-136.5 150.79-137.06 242.39-11.438 11.859-15.609 29.438-10.922 46.125-25.922-5.1562-48 6.1875-66.422 22.125-145.78-186.1-327.37-344.76-602.29-383.58-31.547-4.6875-63.609-9.375-95.156-4.6875-31.547 4.6875-63 20.156-79.453 47.484-19.312 32.156-13.828 74.766 5.3438 107.06 19.125 32.297 50.344 61.594 83.016 80.016 23.344 13.172 35.438 39.891 42.797 65.672 7.3594 25.781 11.766 53.109 26.109 75.75 23.906 37.734 72.703 54.234 115.08 40.031 14.109-4.7344 28.453-8.7656 42.938-12.188 14.719-3.4688 29.578-6.375 44.531-8.7188 15.047-2.3906 30.141-4.2656 45.328-5.7188 15.094-1.4531 30.188-2.4375 45.328-3.0938 14.812-0.60938 29.672-0.89062 44.531-0.84375 14.297 0.046875 28.641 0.375 42.938 0.9375 13.547 0.5625 27.047 1.3594 40.547 2.3438 12.469 0.9375 24.938 2.0625 37.406 3.3281 11.156 1.1719 22.312 2.4844 33.469 3.9375 9.6094 1.2656 19.172 2.625 28.734 4.125 7.7344 1.2188 15.469 2.4844 23.203 3.8906 7.5469 1.3594 16.078 1.875 23.531 4.6875 5.3438 2.0156 16.641 10.5 7.4531 16.125-2.2031 1.3594-4.9688 1.2188-7.5469 1.0781-79.031-4.4531-156.98-14.391-236.06-10.594-74.156 3.5625-150.66 7.6406-217.4 40.172-18.328 8.9062-36.281 20.531-46.594 38.062-10.359 17.578-11.719 39.375-7.4062 59.344 7.9219 36.469 35.859 69.375 70.453 83.906 14.109 5.9531 26.859 14.297 38.438 24.328 25.547 22.125 63.797 29.531 97.312 21.562 41.25-9.8438 74.344-41.531 103.5-72.328 86.578-91.266 129.32-124.82 202.36-144.14-1.2188 4.8281-2.2969 9.7031-3.0938 14.672-31.5 18.797-59.766 43.875-88.125 65.672-38.906 29.906-72.281 66.516-96.656 109.08-5.0156 8.7656-9.7969 18.141-10.875 28.5-1.4062 14.625 13.219 26.062 27.375 22.078 34.125-9.6094 64.266-31.266 91.031-55.125 29.578-26.344 58.172-54.328 83.812-84.562-0.23437-1.6406-0.23437-3.7969 0.14063-6.7031 1.5469-12.188 8.7188-23.531 16.453-32.812 5.1562-6.1406 12.281-12.891 20.625-13.594 2.9062-0.23438 8.0625 0.046875 8.5312 3.7969 0.32813 2.3438-2.5781 5.5781-3.8438 7.5469-1.9219 3.0469-3.8438 6.0469-5.8125 9.0469-4.1719 6.3281-8.3906 12.703-13.359 18.422-3.4219 3.9844-4.9688 9.1875-3.9375 14.344 6.0938 30.938 7.2656 59.062 1.9688 83.344-3.4688 12.094 3.4688 12.75 9.2812 5.2031 13.922-18.188 15.844-48.469 5.8594-90.844 14.297-7.7812 25.5-20.391 33.75-37.641 14.25 14.953 41.484 16.828 75.281 12.094 14.625 34.406 29.016 69.094 61.453 79.828 9.75 3.8906 14.719-5.2031 9.5156-7.125-25.969-10.875-39.844-47.484-56.438-84.656-1.875-4.1719-5.9531-6.8906-10.547-7.0312-17.812-0.65625-36.188-2.2969-48.984-5.625 0 0 22.266-34.078 23.859-36.281 0.65625 0.5625 1.2656 1.1719 1.9219 1.6875 1.9688 1.4062 4.0781 2.7656 6.4688 3.0469 3.0469 0.32812 6-1.0781 8.7656-2.5312 12.188-6.375 24.094-13.266 35.672-20.719 1.4062-0.89062 3.2344-0.42188 4.125 0.9375 26.625 41.109 50.297 52.969 71.625 42.797 5.8594-3.2344 3.2344-11.016-2.3906-9.9375-24.75 4.9688-38.391-19.406-55.219-42.375-6-8.2031-16.969-10.969-26.062-6.4688-13.594 6.75-30.656 14.484-33.141 14.438 3.1406-6.2812 5.8125-12.797 7.5-19.688 3.0938-12.703 2.9531-26.438-1.1719-38.766 12.422 4.5469 26.297 4.0781 38.203-2.8125 22.172-12.797 29.109-42.188 15.562-65.719-6.2344-10.781-15.75-18.281-26.344-22.172 18.094-70.078 90.938-127.08 156.37-139.22 6.3281-1.1719 10.5-7.2656 9.3281-13.594-1.1719-6.3281-7.2188-10.547-13.594-9.3281z" fill="#312a29"/>
</svg>
