<svg xmlns="http://www.w3.org/2000/svg" viewBox="0 0 64 64" fill="none">
  <path d="M32 30c-6 0-9 4-9 10 0 7 4 14 9 14s9-7 9-14c0-6-3-10-9-10z" fill="#495336"/>
  <ellipse cx="22" cy="31" rx="4" ry="7" fill="#495336" transform="rotate(-25 22 31)"/>
  <ellipse cx="42" cy="31" rx="4" ry="7" fill="#495336" transform="rotate(25 42 31)"/>
  <g stroke="#495336" stroke-width="2.6" stroke-linecap="round">
    <path d="M27 25c-3-6-3-12-5-16"/>
    <path d="M24 16l-6-3"/>
    <path d="M23 11l-5-1"/>
    <path d="M37 25c3-6 3-12 5-16"/>
    <path d="M40 16l6-3"/>
    <path d="M41 11l5-1"/>
  </g>
</svg>
