<?xml version="1.0" encoding="UTF-8"?>
<svg width="1200pt" height="1200pt" version="1.1" viewBox="0 0 1200 1200" xmlns="http://www.w3.org/2000/svg">
 <path d="m506.34 285.52-15.094 5.3438c11.203 31.781 28.125 50.438 50.25 55.406 6.8438 1.5469 13.594 1.5938 20.062 0.70312 11.719-1.6875 25.5-9.4219 34.078-14.625 108 104.72 191.58 30.75 215.48 4.2188l-13.781-15.656c-27.469 30.469-58.875 35.578-80.203 33.047-95.391-11.25-144.56-101.72-71.812-184.22l-14.906-12.938c-8.4844 19.969-29.625 37.922-47.156 31.969-25.453-8.7188-34.125-33.469-27.094-55.781l-15.188-4.7812c-31.125 54.375 24.562 92.859 12.656 102.56-13.922 11.344-44.438 4.2188-43.312-38.531l-16.031 0.32812c-1.0781 27.094 7.125 48.75 23.156 60.844 12.281 9.2812 66.703 19.875 54 51.891-7.5938 19.125-39.938 29.25-65.156-19.781z" fill="#312a29"/>
 <path d="m911.02 227.44-17.25-11.766c-12.328 23.438-28.875 37.031-44.719 44.484l19.875 18.703c21.984-17.344 35.578-39.094 42.094-51.469z" fill="#312a29"/>
 <path d="m337.5 820.31h-79.922c-10.125 41.297-32.625 75-32.625 75v178.13l18.75 56.25h56.25l-37.5-56.25 18.75-159.37s22.312-24.609 56.25-93.75z" fill="#312a29"/>
 <path d="m787.5 820.31h-56.25l18.75 253.13 18.75 56.25h56.25l-37.5-56.25z" fill="#312a29"/>
 <path d="m1106.3 389.06s-37.5-18.75-112.5-37.5c-32.719-8.1562-61.688-21.094-83.297-29.438 30.844-10.734 53.062-31.688 63.609-43.406l-13.781-15.656c-27.469 30.469-58.875 35.578-80.203 33.047-95.391-11.25-144.56-101.72-71.812-184.22l-14.906-12.938c-8.4844 19.969-29.625 37.922-47.156 31.969-25.453-8.7188-34.125-33.469-27.094-55.781l-15.188-4.7812c-31.125 54.375 24.562 92.859 12.656 102.56-13.922 11.344-44.438 4.2188-43.312-38.531l-16.031 0.32812c-1.0781 27.094 7.125 48.75 23.156 60.844 12.281 9.2812 66.703 19.875 54 51.891-7.5938 19.125-39.938 29.25-65.156-19.781l-15.094 5.3438c11.203 31.781 28.125 50.438 50.25 55.406 6.8438 1.5469 13.594 1.5938 20.062 0.70312 11.719-1.6875 25.5-9.4219 34.078-14.625 30.656 29.719 59.297 45 85.219 51.094-6.3281 5.5312-12.656 13.781-18.75 25.969-44.344 88.641-114.47 168.74-187.5 168.74h-225c-75 0-93.75-18.75-168.74-18.75-52.688 0-87.562 23.672-108.09 51.094-24.328 14.438-41.906 40.594-41.906 80.156h19.312c4.5938 77.812 36.938 97.734 36.938 150 0 56.25-56.25 112.5-56.25 112.5v178.13l18.75 56.25h56.25l-37.5-56.25 18.75-159.37s62.812-30.938 100.31-143.44c13.266-39.75 68.438-44.062 68.438-44.062l-53.109 75c187.5 0 165.61-18.75 259.36-18.75h41.906l25.875-69.938 1.2188 69.938 24.75 18.75 37.5 271.87 18.75 56.25h56.25l-37.5-56.25v-271.87h75c56.25-56.25 55.5-144.47 73.688-226.31s74.156-127.6 132.56-139.31c85.781-17.156 124.5 28.5 130.4-28.359l-29.25-8.25 30.047-10.219zm-150-9.375c-10.359 0-18.75-9.375-18.75-9.375s8.3906-9.375 18.75-9.375c10.359 0 18.75 14.719 18.75 14.719s-8.3906 4.0312-18.75 4.0312z" fill="#312a29"/>
</svg>
