<?xml version="1.0" encoding="UTF-8"?>
<svg width="1200pt" height="1200pt" version="1.1" viewBox="0 0 1200 1200" xmlns="http://www.w3.org/2000/svg">
 <path d="m957.19 854.95c-6.8906-5.4844-18.797-7.2656-26.484-8.5781-31.312-4.8281-62.156-12.234-92.25-22.172-25.031-8.5312-49.078-19.594-71.859-33.094-32.578-19.547-61.922-44.156-86.906-72.844-0.14062 0-11.391-1.6406-16.781-2.2969-7.875-1.0312-15.703-2.0625-23.578-3.2812-4.0312-0.70312-7.5938-3-9.8438-6.375-2.25-3.4219-3-7.5938-2.0625-11.578 1.875-8.0625 9.75-13.266 17.906-11.859l5.3906 0.84375c6.1406 0.98438 12.422 2.0156 18.609 2.7188 24.984 3.2812 50.391 1.5469 74.766-5.0156 17.484-4.2188 33.938-12.047 48.281-23.016 4.9219-3.5625 8.8594-8.2969 11.531-13.781 1.9219-4.9219-0.89062-10.406-7.3594-15.094l-9.5625-6.6094c12.984-6.9844 26.25-13.594 38.953-21.141v0.046875c8.6719-4.9219 16.172-11.719 21.984-19.875 3.75-4.2188 4.7344-10.219 2.4844-15.375-3.9375-6.75-12.375-8.1562-19.266-10.125l-11.953-3.5625 12.656-8.9531v-0.046875c11.719-7.5469 22.5-16.453 32.203-26.438 5.0625-4.9688 8.9531-11.016 11.344-17.719 2.0625-5.3438-0.28125-11.344-5.4375-13.875-6.7031-3.1875-14.109-4.7812-21.562-4.5938l-13.734-1.3125 18.891-16.781c10.734-8.8594 20.156-19.219 27.844-30.797 2.0156-3.1406 3.4688-6.5625 4.4062-10.125 3.1875-13.125-14.531-8.7656-21.141-8.7656l-20.109 2.5312 18.844-20.766h-0.046875c10.922-11.203 20.484-23.672 28.5-37.125 3.5625-6.3281 8.7188-14.25 6.9844-21.891h-0.046875c-0.42188-1.8281-1.5469-3.4219-3.1406-4.3594-1.5938-0.98438-3.5156-1.2656-5.3438-0.84375-7.9219 2.1094-15.516 5.25-22.641 9.2812l-30.891 14.109 14.906-19.406c11.344-14.156 21.797-28.969 31.312-44.438 6.4219-10.359 11.25-21.562 14.344-33.328 1.125-4.7812 3.0469-15.797-3.6562-17.906-4.8281-1.5-10.453 3.1875-13.781 6.0938-35.906 30.469-73.312 59.109-112.08 85.828-43.5 30.469-91.219 61.266-146.02 94.031h0.046875c-22.406 13.359-42.188 30.609-58.406 51-13.734 17.859-25.359 37.266-34.594 57.797-5.25 11.062-10.125 22.359-15.609 33.328h-0.046875c-4.3125 10.875-16.312 16.5-27.422 12.844-6.8906-1.8281-13.594-4.2656-20.062-7.3594-17.812-9.0469-33.891-21.188-47.484-35.859-15.375-15.328-29.297-29.156-44.062-42.703-12.984-12.234-30.188-19.125-48.094-19.266-20.109-1.4062-39.234 9.0938-48.75 26.906-5.1094 9.0469-8.2031 19.078-8.9531 29.438-0.1875 3.8438-2.4844 7.2656-5.9531 8.9062-9.7031 5.2969-18.234 12.562-25.031 21.281 11.391-2.1562 22.922-3.5156 34.5-4.125 15.516-1.0781 30.375 6.375 38.766 19.5 9.1875 13.641 16.125 28.688 20.391 44.578 7.5469 25.406 16.969 50.203 28.266 74.156 14.203 31.594 34.266 60.234 59.062 84.469 29.953 28.641 67.125 48.609 107.53 57.891 25.594 5.3438 51.797 7.6406 77.953 6.7969 37.312-0.60938 75.891-3.8438 108.84 16.828 15.516 10.172 29.438 22.5 41.391 36.656 14.438 16.312 31.219 35.203 48 53.438 10.125 10.969 25.453 26.109 41.531 26.203h-0.046875c3.0469 0.23438 6.0469-0.84375 8.2031-3s3.2812-5.1562 3.0469-8.2031l0.5625-12.188 12.703 7.8281c9.375 5.7656 32.016 20.25 40.547 5.3906 3.7969-6.6094 0.70312-15.75-2.2031-22.078l-6.5625-14.344 15.094 3.7031c10.734 2.7188 26.672 4.4062 31.828-8.2969 4.3594-10.734-4.2656-18.328-10.828-25.406l-10.406-11.109 11.625-2.7656c9.6094-2.2969 21.516-6.0469 24.609-16.734h0.046875c2.1562-5.7188 0.28125-12.188-4.6406-15.844zm-624.19-320.48c-4.0312 3.7031-9.3281 5.7656-14.812 5.7656h-0.60938c-5.3906-0.23438-10.5-2.5781-14.203-6.5156-3.9844-4.1719-6.0938-9.75-5.9531-15.516 0.14062-5.5312 2.4844-10.781 6.5625-14.531 4.1719-3.8906 9.75-5.9062 15.422-5.625 5.5781 0.09375 10.922 2.4375 14.719 6.5156 3.8438 4.0781 5.8594 9.5156 5.625 15.094-0.09375 5.6719-2.5781 11.016-6.75 14.812z" fill="#312a29"/>
 <path d="m514.74 508.03c10.922-22.172 25.031-42.656 41.766-60.797 19.875-20.25 42.516-37.641 67.172-51.609 42.422-25.266 83.906-51.984 124.5-80.109 6.2812-4.3594 12.516-8.8594 18.703-13.266-0.60938-2.25-2.1094-4.2188-4.2188-5.2969-2.0625-1.0781-4.5469-1.2656-6.75-0.42188-6 1.6875-18.984 7.2656-20.531 7.9688 0.9375-1.2188 15.891-22.359 22.312-32.812l0.046875-0.046875c5.9062-9.0938 9.9375-19.312 11.766-30.047 0.65625-4.2656 0.51562-8.625-0.42188-12.844-0.46875-2.5781-2.1094-4.7344-4.4531-5.9062-2.2969-1.1719-5.0625-1.2188-7.4062-0.046875-3.75 1.6875-7.2656 3.8906-10.359 6.6094-18.562 15.188-36.703 30.891-55.5 45.75-33.938 26.906-69.609 51.469-105.47 75.75-16.734 11.344-33.891 22.125-50.25 33.984v0.046875c-23.625 16.781-43.078 38.719-56.859 64.219-14.766 27.703-19.5 58.219-24.562 88.641h0.046875c11.109 8.4375 23.672 14.766 37.078 18.656 0.70312-1.3594 15.797-33.562 23.391-48.422z" fill="#312a29"/>
</svg>
