<?xml version="1.0" encoding="UTF-8"?>
<svg width="1200pt" height="1200pt" version="1.1" viewBox="0 0 1200 1200" xmlns="http://www.w3.org/2000/svg">
 <path d="m505.03 518.58c0.09375-5.0625 1.8281-9.5625 4.0781-13.312-15.094-0.75-31.125-0.1875-47.953 2.3906-0.28125 3 0.5625 15.703 26.906 35.953-1.3125-6.9375-0.51562-12.656 2.5312-17.109 3.7969-5.4375 9.6562-7.3125 14.438-7.9219z" fill="#312a29"/>
 <path d="m508.45 559.5c10.875 14.531 40.875 25.641 57.797 30.609 0.98438-3.0938 1.9688-8.2031-0.1875-14.344-3.4219-9.6094-13.781-18.141-29.953-24.656-14.016-5.6719-23.344-12.516-27.938-20.344-2.625 0.09375-5.9062 0.70312-7.3125 2.8125-0.9375 1.4062-3.2812 7.2188 6.0469 24.234 0.51562 0.5625 1.125 1.0781 1.5469 1.6875z" fill="#312a29"/>
 <path d="m576.52 568.74c-0.51562-25.969-13.828-49.312-18.094-56.109-10.453-2.625-22.125-4.7812-34.547-6.1406-2.7188 2.6719-7.2656 8.1562-6.4688 13.922 0.9375 6.75 9 13.359 23.344 19.172 18.375 7.4531 30.375 17.25 35.766 29.156z" fill="#312a29"/>
 <path d="m669.98 422.16c22.781-14.719 75.516-43.5 127.87-34.078-11.766-22.453-18.422-47.906-10.969-72.891-8.6719 0.32812-17.25 0.51562-25.312 0.51562-30.516 0-55.875-14.344-55.875-14.344 0.79688 0.046875 75.234 5.5312 127.13-2.625-21.984-26.812-24.656-35.438-21.375-41.766 3.5625-6.8906 12.141-6.1406 22.031-5.25 7.875 0.70312 17.719 1.5469 24.141-1.6406 9.4688-4.7344 7.5-35.625 6.1875-56.062-1.5469-23.812-2.0156-36.469 4.5938-41.719 2.625-2.0625 5.9062-2.5781 9.375-1.4531l1.7812 0.5625 1.1719 1.4531c10.969 13.641 23.062 26.109 28.922 30.047 4.2188-14.109 3.6562-70.875-26.531-93.234-23.906-17.625-95.438-42.938-152.63-21.375-39.422 14.859-65.156 49.031-76.5 101.48-15.516 71.812-5.1562 112.41 4.875 151.6 7.7812 30.516 15.188 59.531 11.109 100.78zm85.547-286.22c16.781-17.109 30.75-17.109 39.516-14.109 12.562 4.3125 19.406 16.219 20.25 23.297 1.5938 13.547 15.562 22.547 15.703 22.641 0 0-12.141 6.9375-17.297 1.125-4.9219 4.9219-13.5 10.312-28.266 10.312-1.3594 0-2.7656-0.046875-4.2188-0.14062-8.5781-0.5625-15.375-3.8438-20.203-9.75-4.0312-4.9688-5.9062-10.922-6.7969-16.266-22.5 14.812-44.719-13.359-44.719-13.359 2.25 2.1562 22.688 20.062 46.031-3.75z" fill="#312a29"/>
 <path d="m301.69 658.97c15.75-36.281 37.078-53.812 56.109-62.062 33.469-14.438 68.25-3.8438 86.438 12.188 12.281 10.875 64.594 8.25 94.734 4.0781l1.2656-0.1875c3.7969-2.2031 10.359-6.2812 18.328-12.281-16.922-5.25-47.203-16.688-60.047-33.797-11.531-15.375-53.25-6.9844-66.938-2.8125 0 0 19.781-18.656 39.516-18.562-17.531-15.891-21.797-28.125-22.266-35.531-9.4688 2.0156-33-3.7969-33-3.7969 97.219-34.359 180.37 3.7031 202.92 15.75 0.46875-1.4062 1.0312-2.7188 1.4531-4.125 5.8594-19.641 13.125-31.359 19.547-41.719 3-4.8281 5.7656-9.4219 8.2031-14.438l-0.09375-0.09375 0.1875-0.09375c0.046875-0.14062 0.14062-0.28125 0.1875-0.42188-57.844-24.234-110.06-8.8594-138.37 4.125 36.75-1.7344 76.875 7.875 76.875 7.875-0.84375 0.046875-82.406 5.8594-121.97 5.8594-37.781 0-115.64 35.578-137.53 92.297 33.047-17.625 62.25-12 62.25-12-0.89063 0.1875-87.469 21.328-156.1 104.58-6.75 8.1562-13.406 15.562-19.969 22.547 15.656-4.7344 30.188-5.9062 39.75-5.9062 16.312 0.046875 39.422-14.672 48.516-21.469z" fill="#312a29"/>
 <path d="m614.21 533.68c-6.2812-3.375-19.922-9.9844-38.812-16.125 6.4219 12.844 14.156 33.047 13.5 55.125 9.6094-10.922 18.609-23.953 25.312-39z" fill="#312a29"/>
 <path d="m667.78 438.74c-0.14062 0.79687-0.1875 1.5-0.32812 2.3438-0.70312 4.0312-1.5938 7.6406-2.5312 11.062 29.297-15 91.922-41.531 153.74-32.344-4.125-5.25-8.2031-10.828-12.047-16.781-59.812-18.094-127.31 27.422-138.84 35.719z" fill="#312a29"/>
 <path d="m480.89 655.78c33.562-2.0625 45.938-18.75 50.391-29.109-22.969 2.5781-78.141 6.9375-95.25-8.2031-10.453-9.2344-27.188-15.844-45.281-15.844-9.2344 0-18.797 1.7344-27.984 5.7188-42.75 18.469-68.016 79.219-71.391 171.28 10.688-1.2188 21.047-4.7812 30.188-11.812 6.7031-5.1562 14.344-12.094 22.406-19.688-6.8438 1.9219-12.891 2.625-17.906 2.625-11.578 0-12.609-14.719-12.609-14.719 0.23438 0.14062 24.281 12.328 65.812-21.469 2.3438-2.2031 4.7812-4.4062 7.2188-6.5625-6.2344 1.125-12 1.5938-17.25 1.5938-16.781 0-23.578-16.266-23.578-16.266 1.2188 0.51563 31.219 12.656 69.234-8.8594 8.7656-6.4688 17.625-12.281 26.625-16.922-41.906-4.3125-59.109-30.094-59.109-30.094 0.28125 0.14063 35.25 22.547 98.484 18.328z" fill="#312a29"/>
 <path d="m459 918.47-0.046875 0.09375z" fill="#312a29"/>
 <path d="m1030.4 313.55c-36.094-10.969-80.906-63-109.5-125.26-1.125 3.1875-3.4688 7.6875-8.3438 8.1562-7.0312 0.75-19.688-9.5156-37.078-30.469-0.60938 6.4688 0.14062 18.094 0.75 27.234 1.7812 27.938 3.8438 59.578-13.031 67.969-9.5625 4.7812-21.375 3.7031-30.797 2.9062-3-0.28125-6.9375-0.65625-9.2344-0.51563 1.3125 3.4219 6.0938 11.672 22.594 31.406 18.797 22.5 53.906 34.781 90.984 41.391-61.312-18.375-78.094-53.156-78.094-53.156 0.46875 0.51562 52.125 52.641 198 59.812 3.2812-0.14063 6.2344-0.28125 8.625-0.42188-3.3281-8.25-12.141-22.172-34.875-29.062z" fill="#312a29"/>
 <path d="m284.16 723c2.6719-16.875 6.1875-31.641 10.312-44.531-11.578 6.8438-27.375 14.391-41.25 14.391-15.656 0-45.562 3-70.078 22.828-1.9688 1.7344-3.9375 3.4688-5.9062 5.1094 32.531-10.031 75.469-16.734 106.92 2.2031z" fill="#312a29"/>
 <path d="m856.55 459.19c-1.2188-0.98438-12-9.9844-24.844-24.094-74.156-19.125-157.55 25.594-174.1 35.156-2.2969 4.3125-4.7812 8.3438-7.3125 12.422-6.2812 10.172-12.844 20.672-18.188 38.719-18.422 62.109-74.625 96.281-87.094 103.27-3.1406 11.25-15.656 39.328-60.516 43.219v0.09375c-0.65625 0.046875-1.2188 0-1.875 0.09375-0.75 0.046875-1.4062 0.1875-2.25 0.1875-37.594 1.9219-79.875 42.703-113.91 75.516-13.547 13.031-26.344 25.406-37.359 33.844-14.25 10.922-30.75 14.906-46.969 14.906-24.422 0-48.047-9-62.484-17.016 6.7031 17.203 23.109 48.188 57.984 61.359 24.188 9.1406 44.812 23.438 64.781 37.312 19.219 13.359 37.641 25.969 56.297 31.406-5.7188-11.625-10.641-40.266-10.641-40.266 3.0938 4.0312 30.281 40.125 29.344 61.031-0.60938 13.875 13.688 35.344 19.219 42.422l0.89062 1.5469c0.84375 2.1562 20.578 52.922 17.625 100.31-1.9219 29.531 58.125 56.766 94.359 69.375-7.2656-11.906-19.266-28.312-32.812-33.375 0 0 30.938-1.125 46.547 32.25 31.312-13.781 66.562-10.641 78.891-8.8125 8.1562-10.594 29.625-14.766 43.969-16.406-2.4375-2.0625-5.4375-4.2656-8.7188-6.5156-9.4688-6.9375-42.375-11.016-75.656-9.3281-32.672 1.7812-76.125-20.25-76.125-20.25 0.42188 0.09375 44.438 9.4688 75.469 7.875 10.594-0.5625 25.078-0.5625 39.375 0.5625-1.2188-0.5625-2.4375-1.2188-3.6094-1.7812-15.984-2.3906-120.28-18.469-137.9-33.094-15.703-13.031-51.562-59.438-43.078-91.828 6-23.016-8.1562-34.5-8.2969-34.594l-3.9375-3.0938 18.984-38.438-1.9219 31.922c114.09 36.469 249.56 17.016 362.44-52.172 73.969-45.328 123.32-104.77 132.1-159.05 21.047-130.22-97.5-243.56-98.672-244.69z" fill="#312a29"/>
 <path d="m279.94 761.06c0.60938-8.5312 1.3125-16.734 2.25-24.422-48-35.25-140.06 11.016-145.18 13.641-0.70312 0.42188-1.5 0.98438-2.2031 1.4062 9.9844-0.375 21.375-0.5625 32.531-0.28125 10.125-3.9375 69.094-24.375 112.59 9.6562z" fill="#312a29"/>
 <path d="m279.1 777c-21.703-21.562-50.484-24.234-72.984-21.844 5.0625 1.2188 9.1875 2.7188 11.766 4.6875 9.375 7.125 34.781 19.359 61.031 20.25 0.046875-1.125 0.09375-2.0625 0.1875-3.0938z" fill="#312a29"/>
 <path d="m712.82 1032.9c-24.281-17.438-40.031-78.844-44.156-96.469-7.2656 1.4531-14.531 2.8125-21.844 3.8906 8.7188 27.938 1.2188 64.922 0.89062 66.609l-0.89062 2.1094-20.484 31.547 29.25 1.3125 1.7344 2.7188c22.453 34.734 86.812 51.75 114.42 57.656-11.109-11.062-30.844-27.844-53.25-33.375-39.797-9.75-30.375-31.172-30.141-30.656 20.906 21.281 98.578 22.875 126.89 21.562 0 0-21.094 13.547-63.516 10.406 20.906 13.125 35.672 30.328 38.578 33.844l83.203-7.125c-0.28125-9.4219 2.4844-19.828 4.5938-26.156l-41.625-17.391c-11.859-0.14062-97.547-1.6406-123.66-20.484z" fill="#312a29"/>
 <path d="m782.02 166.69c15.328 0.9375 22.078-5.0625 24.562-8.3438-1.7344-3.5156-3.0938-7.4062-3.6094-11.766-0.375-3.2344-4.8281-10.594-11.906-13.031-9-3.0469-18.375 3.1406-25.078 9.5625-0.1875 3.9375 0 12.75 4.6875 18.375 2.5781 3.1875 6.2812 4.875 11.344 5.2031zm10.453-24.938c3.3281 0 6 2.6719 6 6s-2.7188 6-6 6c-3.3281 0-6-2.7188-6-6s2.6719-6 6-6z" fill="#312a29"/>
</svg>
