<?xml version="1.0" encoding="UTF-8"?>
<svg width="1200pt" height="1200pt" version="1.1" viewBox="0 0 1200 1200" xmlns="http://www.w3.org/2000/svg">
 <path d="m1043.6 776.72c1.0781-1.875 2.25-3.75 3.3281-5.625 3.2344-5.2969 6.6094-8.5781 5.6719-14.203-5.5312 2.1562-9.1875 6.1875-14.156 9.5625-8.3438 5.625-16.922 10.875-25.734 15.656-16.031 8.7188-32.766 16.125-49.969 22.266-7.6406 2.7656-15.469 5.6719-23.391 7.4062-6.1406 1.3594-13.406 1.6875-18.328 6.0469-5.3906 4.7812-6.2812 15.188-7.1719 21.891-1.2188 9.0469-1.2656 18.141-0.98438 27.234 2.0625 77.391 6.1406 156.94 26.203 232.08 4.4531 16.547 9.8906 33.094 18.469 48.047 3.2812 5.7656 7.875 15.234 14.109 18.328 3.375 1.6875 7.875 1.0781 11.531 1.0781h18.609c9.7031 0 19.312-0.09375 28.969 0 4.125 0 11.438 2.1094 12.328-3.3281 1.2656-7.3125-7.1719-18-11.062-23.672-8.6719-12.562-19.641-15.562-33.562-19.359-8.4375-2.3438-9.9375-9.7031-12.422-17.484-3.1875-9.9375-5.25-20.25-6.6094-30.609-4.6406-36.469-2.8594-74.484 1.6875-110.91 5.0625-40.547 14.906-80.531 30-118.55 7.5469-19.031 16.359-37.594 26.484-55.312 2.0156-3.5156 3.9844-6.9844 6.0469-10.406z" fill="#312a29"/>
 <path d="m624.79 961.69c3.7031-3.2344 7.2656-6.5156 10.641-10.078 14.953-15.797 28.359-33.188 39.938-51.609 11.766-18.703 64.547-114.09 37.406-126.05-4.7812-2.1094-9.5156-4.2188-14.297-6.3281-10.125-4.5-20.156-9.2344-30.328-13.688-2.5781-1.125-5.2031-2.625-7.6406-0.51562-2.6719 2.3906-3.1875 9.4688-4.1719 12.75-2.8594 9.7031-6.3281 19.078-10.5 28.312-14.812 32.766-34.031 65.156-58.031 92.062-5.1094 5.7188-11.156 10.172-13.406 17.766-3.0938 10.359-5.1094 20.906-9 31.078-6.9375 18.141-19.594 33.094-20.438 53.203-1.5 36.047 8.6719 72.609 20.297 106.31 5.9062 17.062 12.562 33.844 20.156 50.203 2.625 5.6719 3.9375 12.469 10.5 13.453 4.4062 0.65625 9.4219 0 13.922 0.046875 13.406 0.09375 26.859 0.1875 40.312 0.28125 5.1094 0 10.172 0.046875 15.281 0.046875 5.5781 0 7.8281 0.75 5.8594-6-2.4375-8.3906-6.7031-17.203-13.172-23.25-8.5312-7.9219-17.344-6.6094-27.891-8.4844-14.016-2.5312-21.469-26.766-25.031-38.484-4.875-15.844-7.4062-32.391-9.2812-48.844-1.6875-14.766-2.7656-30 3.8906-43.828 5.625-11.719 15.516-20.016 25.078-28.5z" fill="#312a29"/>
 <path d="m846.14 389.16h1.875v-0.75l-1.875 0.70312z" fill="#312a29"/>
 <path d="m92.719 1011c7.7344 3 15.516 5.625 23.344 7.8281 72.328 20.484 150.71-2.5312 206.39-51.516 25.406-22.359 46.266-49.969 60.281-80.766 16.359-35.953 22.125-75.938 20.484-115.22-1.5938-39.281-9.0469-79.734-3.75-119.72 4.7344-35.672 20.062-69.188 45.609-94.781 5.7188-5.7188 11.953-11.016 18.703-15.562 3.1875-2.1562 6.4688-4.125 9.8906-5.9062 3.375-1.7344 7.6406-4.3594 11.438-4.8281-3.1875 3.6094-7.875 6.3281-11.625 9.375s-7.7344 6.4219-11.438 9.8438c-7.7812 7.1719-14.672 15.188-20.438 24.094-11.578 17.906-19.078 38.391-22.266 59.484s-2.1562 42.938 2.5312 63.797 14.531 41.578 23.531 61.781c18.234 40.828 28.875 84.562 19.031 129.1-4.4531 20.062-12.328 39.234-22.125 57.234-4.9688 9.2344-10.359 18.469-16.453 27-2.7656 3.8438-5.7188 7.5938-7.7344 11.859-2.2969 4.875-2.25 9.9375-1.7812 15.234 3.75 45.516 6.6562 92.672 21.984 136.03 1.7812 5.0625 3.7031 10.078 5.9531 14.953 1.3125 2.9062 2.9531 5.7656 5.8594 7.3125 3.0938 1.6406 6.8906 1.5938 10.266 1.6406 6.0469 0.09375 12.094 0.14062 18.094 0.1875 11.438 0.09375 22.875 0.14062 34.266 0 3.2812 0 8.4844 0.84375 11.156-1.5 3-2.5312 1.2188-7.1719-0.09375-10.078-3.0938-6.7969-8.0156-13.734-14.062-18.094-3-2.2031-6.3281-3.8438-9.8438-5.0625-4.1719-1.4531-8.7188-1.8281-12.891-3.5156-7.4531-2.9062-11.25-9.7969-14.156-16.734-4.1719-9.8438-6.1406-20.344-7.1719-30.938-2.0625-21.469-2.625-44.016 4.1719-64.734 6.375-19.219 19.078-35.484 33.844-49.031 15.656-14.391 33.516-26.25 48.328-41.578 15.844-16.406 30.047-34.406 43.359-52.922s25.453-37.031 35.719-57c5.1094-9.8906 9.7031-19.969 13.688-30.328s6.8438-20.719 9.9844-31.172c1.0781-3.7031 2.9062-8.2031 1.5469-12.094-1.5469-4.5938-6.0469-4.7344-9.4219-7.2188 7.875 1.3594 15.75 4.4531 23.297 7.0781s15.562 5.9062 23.25 9.1875c15.375 6.6562 30.375 14.016 45.469 21.328 15.047 7.2656 29.156 14.016 43.922 20.484 3.75 1.6406 7.5469 3.1406 11.438 4.3594 2.2031 0.65625 4.7812 1.5 6.7969-0.046875 3.1875-2.4375 2.4375-8.3438 2.5312-11.859 0.23438-8.5312 1.3125-17.156 2.5312-25.641 0.5625-3.75 1.0312-7.5 1.7812-11.109 0.70312-3.375 1.5-8.7656 4.0781-11.25 0.60938 3.5625-0.28125 7.7812-0.65625 11.344-0.51562 4.6406-1.0781 9.2344-1.6406 13.875-0.98438 8.2969-1.5938 16.594-1.9688 24.938-0.75 17.719-0.75 35.484-0.23438 53.25 0.98438 35.109 4.125 70.219 8.6719 105.05 9.1406 69.516 23.812 139.55 49.125 205.08 2.2031 5.625 3.75 12.047 6.8438 17.297 3.2812 5.625 8.8594 6.9375 15 7.0312 6.7969 0.09375 13.5-0.79688 20.25-0.79688h26.062c4.2188 0 9.7031 1.2188 13.641-0.70312 5.2031-2.4375 2.1562-9.7031 0.32812-13.359-5.7656-11.906-16.359-23.578-29.344-27.516-6.1406-1.8281-13.266-1.8281-17.062-7.8281-3-4.7812-3.6094-10.828-4.7344-16.219-3.75-17.062-6.3281-34.219-7.7344-51.703-2.8594-35.25-2.2031-71.062 0.42188-106.27 2.5781-35.25 8.0625-69.375 17.906-102.8s24.328-64.547 37.688-96.281c1.6875-4.0781 3.4219-8.2031 5.2031-12.281 1.5938-3.75 2.9531-8.25 5.2031-11.625 0.65625 4.6406-2.1094 10.734-3.6562 14.953-1.9688 5.2031-3.9375 10.359-6 15.516-4.0312 10.5-7.9219 21.328-12.891 31.406-1.5469 3.1875-4.6875 7.9688-3.375 11.672 1.2188 3.5156 5.3906 1.8281 7.9219 1.0312 11.25-3.375 22.312-7.125 33.234-11.297 40.922-15.562 81-35.297 114.66-63.562 63.281-53.203 103.31-132.32 112.92-214.03 10.031-86.062-15-170.44-67.969-238.5-10.078-12.984-20.859-25.406-30.75-38.531-9.3281-12.422-17.578-25.688-24.75-39.469-14.484-27.844-24.469-57.75-31.547-88.219-3.7969-16.453-7.4531-33.422-8.7188-50.297-0.32812-4.4062 1.2188-23.297-7.6875-18.328-7.4062 4.1719-12.891 13.359-18.141 19.875-9.8906 12.047-18.656 24.938-26.203 38.578-3.9844 7.2188-7.6875 14.672-11.016 22.219-3.1406 7.0312-5.3906 14.531-8.6719 21.516-2.1094 4.4062-5.2031 7.4062-9.8906 8.6719-6.2344 1.7344-14.203 2.7656-20.625 1.7812-7.3125-1.0781-13.312-6.1406-19.406-9.9844-7.4062-4.6875-14.766-9.375-22.125-14.156-14.062-9.2812-27.984-18.844-41.719-28.688-6.8906-4.875-13.734-9.8438-20.484-14.812-5.4844-3.9844-10.781-9.8906-17.109-12.469-4.3125-1.7344-3.6094 4.6406-3.4219 7.4531 0.28125 4.7812 1.2188 9.5156 2.1094 14.203 2.5781 13.219 4.875 26.438 8.4375 39.516 4.4062 16.312 9.9375 32.297 16.078 48.047 2.4844 6.4219 5.1094 12.75 7.4062 19.266 1.5 4.1719 4.4531 10.406 9.7969 7.0312 2.1094-1.3594 3.7031-3.5156 5.25-5.4375 2.1094-2.6719 4.3594-5.2031 6.7031-7.6406 5.3438-5.4844 10.969-10.547 16.875-15.375 2.625-2.1562 5.2969-4.3125 8.1562-6.1875 2.3906-1.5938 6.1875-4.4531 9.2344-4.4531-0.32812 3.2344-6.7969 6.7031-9.0469 8.6719-4.2188 3.7969-8.3438 7.7812-12.234 11.906-7.7812 8.4375-14.625 17.719-20.156 27.797-11.25 20.391-15.328 43.547-24.938 64.594-8.5312 18.609-22.172 34.172-37.922 47.062-8.2031 6.6562-16.922 12.562-25.828 18.141-4.4062 2.7656-8.7656 5.4844-13.359 7.7812-4.2188 2.1094-9.5625 4.3125-11.766 8.8125-3.5625 7.2188 5.9531 13.172 11.016 16.266 8.2969 5.1094 17.344 8.5781 26.953 10.359 20.062 3.8438 40.969 0.79688 60.469-4.4531 44.391-11.906 84.609-35.578 128.39-49.5 25.547-8.1562 52.547-12.984 79.406-10.078 12.938 1.4062 25.641 4.5 37.734 9.1875 6.1875 2.3906 12.094 5.2969 18.047 8.2031 2.4375 1.2188 4.9219 2.3438 7.2656 3.75 1.9688 1.0781 5.625 2.8125 6.5156 4.875-2.625 0.65625-6.2812-0.65625-8.8125-1.2188-3.0938-0.70312-6.1406-1.4531-9.2344-2.0156-6.8438-1.125-13.781-2.0156-20.672-2.5781-13.781-1.2188-27.609-1.3594-41.297-0.09375-11.391 0.98438-22.688 2.8594-33.75 5.9531-5.7656 1.6406-11.531 3.6094-17.016 6.0469-2.5781 1.125-5.1094 2.3906-7.5938 3.75-2.2031 1.2656-5.5781 2.6719-7.2188 4.6406 4.875-0.28125 10.125-2.625 14.812-4.0312s9.0469-2.3438 13.734-3.1406c10.031-1.6406 20.25-2.3906 30.422-2.2969 19.406 0.1875 38.812 3.6094 57.094 10.219 18.281 6.6562 33.516 15.516 47.578 27.422 6.9375 5.9062 13.219 12.422 19.594 18.844 2.7656 2.7656 5.4375 5.4844 7.9219 8.4844 1.8281 2.2031 6.375 7.0312 6 10.125-2.9062-0.32812-5.7656-3.375-8.0156-4.9688-2.7656-2.0156-5.5781-3.8438-8.5312-5.625-5.9062-3.6094-11.953-6.7969-18.281-9.5156-5.7656-2.5312-11.766-4.5469-17.766-6.6562-4.125-1.4531-11.297-4.7812-15.703-3.1406-0.28125 3.5625 8.25 7.2188 10.688 8.8594 5.25 3.5156 9.9375 7.9688 14.391 12.422 10.266 10.219 19.031 21.891 26.203 34.5 7.1719 12.562 13.172 26.625 17.25 40.922 1.8281 6.375 3.1406 12.938 4.5938 19.406 0.60938 2.6719 3.9844 13.266 1.0312 15.234-2.25-1.4531-3.75-4.875-5.0625-7.1719-1.5469-2.6719-3.0938-5.3906-4.8281-7.9219-3.9844-5.625-8.3906-10.922-13.266-15.797s-9.75-8.7188-14.906-12.75c-2.8125-2.2031-9.4219-8.6719-13.359-7.5469-0.1875 2.4375 2.6719 5.4844 4.0781 7.2188 1.875 2.3906 4.0312 4.5938 5.7656 7.125 4.1719 6.0938 7.2188 13.266 9.6094 20.203 5.2031 15.047 6.9844 31.172 5.9531 47.062-1.0312 15.844-4.7812 30.891-11.016 45.094-2.4844 5.6719-5.4844 11.062-8.4375 16.5-1.5 2.7656-5.7188 12.141-9.8438 11.625-1.5938-2.2031-0.60937-6.0469-0.23437-8.5312 0.5625-3.9844 0.65625-7.9219 0.65625-11.906 0-6.1875-0.046876-12.562-0.75-18.75-0.42188-3.75-1.9688-7.7344-4.7344-2.8125-2.0625 3.6562-2.9062 7.7344-4.4531 11.578-6.0469 15.328-14.438 30.141-23.203 44.016-9.3281 14.672-19.969 28.594-31.969 41.203-5.9062 6.1875-12.281 11.766-18.516 17.625-3.3281 3.1406-7.5 8.3438-12.281 9.1875-1.6875-1.4531 1.0312-7.7812 1.5938-9.5625 0.98437-3.0938 2.0625-6.1406 2.8125-9.3281 2.0156-7.9688 3.5625-16.078 4.7344-24.141 2.1094-14.578 2.9062-29.297 2.4375-43.969-0.84375-29.156-6.5156-58.031-15.844-85.641-17.297-51.281-47.203-98.203-85.266-136.6-4.9219-4.9219-9.8906-10.547-15.516-14.672-6.1406-4.5-12.844-3.3281-20.016-2.5781-8.2031 0.84375-16.359 2.1562-24.562 2.3438-3.6562 0.09375-7.3125 0-10.969 0.09375s-8.5781-0.23438-12.094 1.3125c1.4062 2.0625 6.2812 2.4844 8.5312 2.8125 3.5625 0.51562 7.125 0.60938 10.734 0.70312 8.5781 0.14062 17.156 0.70312 25.781 0.84375 5.7656 0.09375 11.953-1.3125 17.672-0.09375 6.5156 1.4062 4.9688 7.7812 3.75 12.844-3.9844 16.266-10.594 31.406-20.906 44.672-11.016 14.203-25.078 25.781-40.453 35.062-32.719 19.781-70.969 32.156-108.94 35.766-37.969 3.6562-76.406-2.25-113.2-12.141-36.844-9.8906-72.844-23.391-109.31-34.922-38.297-12.094-78.656-22.219-119.06-17.016-68.766 8.8125-124.74 61.875-155.72 121.31-30.984 59.438-42.328 129.89-61.266 195.37-10.219 35.297-23.672 70.5-46.266 99.844-20.156 26.156-47.156 47.203-78.188 58.922-7.6875 2.9062-15.562 5.2031-23.578 6.8906s-16.688 3.2812-24.891 2.7656c-2.8594-0.1875-5.6719-0.51562-8.5312-0.51562-1.6406 0-6.7969-0.32813-7.8281 1.3594-1.4062 2.2031 4.2188 7.7812 5.625 9.2812 2.8594 3.0938 6 5.9531 9 8.8594 21.75 21.375 49.125 37.922 77.906 49.078zm673.18-652.97s-0.1875 0.1875-0.32812 0.28125c-1.7344 1.4062-4.1719 1.9688-6.3281 2.1562-2.4844 0.1875-5.0625-0.09375-7.5469-0.51562-1.2188-0.1875-2.3906-0.42188-3.6094-0.65625-1.0781-0.1875-2.8125-0.1875-3.7969-0.75 0.60938-0.79688 1.8281-1.3125 2.6719-1.7344 0.9375-0.51562 1.875-0.89062 2.8594-1.3125 2.1094-0.89062 4.2188-1.7344 6.4219-2.4844 2.3906-0.84375 5.4375-2.2969 8.0156-1.7812 3.8438 0.75 4.3594 4.3594 1.5938 6.7969zm173.63-108.89c-0.23438 1.0781-1.4531 2.4844-3.8438 4.5-2.25 1.8281-4.5 3.75-6.7969 5.4844-4.3594 3.3281-9.0469 6.4688-14.156 8.4844-4.5938 1.7812-9.4688 2.1562-14.297 3-3.2344 0.5625-6.4688 1.125-9.75 1.5469-2.7656 0.32812-6.4219 1.4062-9.1406 0.5625-0.42187-1.875 2.1094-5.6719 2.9062-7.4062 1.2656-2.625 2.5781-5.2969 4.0781-7.8281 3.0938-5.2031 6.9375-10.172 11.906-13.688 6-4.1719 12.75-4.3125 19.781-2.8594 3.7969 0.79688 7.4531 2.0156 11.062 3.2812 5.0625 1.7812 8.6719 2.5781 8.2031 4.875zm83.391-53.156c-0.46875-3.375-0.42187-6.9375-0.51562-10.359-0.09375-4.4531-0.1875-8.9531-0.32813-13.359-0.42187-9.0938-0.89062-18.609-3.8438-27.281-1.4531-4.3594-5.5781-13.266-11.625-10.969-5.2031 1.9688-7.125 9.8438-8.4375 14.484-3.8906 14.156-4.5469 28.969-6.0469 43.547-0.09375 1.0312 0 3.9375-1.3594 4.2188-2.0625 0.51562-4.1719-5.2969-4.7812-6.6562-2.5312-5.5312-4.3125-11.391-5.3438-17.391-2.1094-12.234-1.0781-24.844 1.5938-36.938 3.1875-14.109 8.6719-27.75 15.516-40.453 3.2812-6.1406 6.8906-12.094 10.781-17.812 1.8281-2.6719 3.75-5.3906 5.7188-7.9688 6.75-8.7188 6.2812 13.172 6.6562 16.359 0.98437 8.8125 1.6406 17.719 2.7656 26.484 2.2031 18.234 4.6875 36.516 3.9375 54.938-0.1875 4.9688-0.65625 9.9844-1.4062 14.906-0.32812 2.3906-0.79687 4.7344-1.3594 7.125-0.28125 1.2656-0.60938 2.4844-0.89063 3.75-0.23437 0.98438-0.42187 2.3906-1.0312 3.2812z" fill="#312a29"/>
</svg>
