<?xml version="1.0" encoding="UTF-8"?>
<svg width="1200pt" height="1200pt" version="1.1" viewBox="0 0 1200 1200" xmlns="http://www.w3.org/2000/svg">
 <path d="m1103.3 552.95c-29.746-11.027-57.648-21.707-67.609-29.785-18.539-15.023 2.9141-24-25.031-50.543 6.2539-25.453 4.9922-48.516 15.707-74.375 14.496-34.969 16.738-60.973-22.285-11.555 15.457-39.539 15.672-65.566-30.707-6.2891-55.199 12.719-81.047 32.746-84.66 57.887-62.711-13.441-91.414-33.203-160.59-29.578-66.301 1.1641-166.95-7.5859-301.93-26.258-93.109-3.0234-156.97 4.1758-200.62 60.973-27.406-1.7266-52.402 2.0508-71.914 10.836-23.09-17.172-47.27-14.617-68.941 2.5078-22.883 18.086-13.105 28.621 8.8789 11.242 14.914-11.785 27.984-15.07 45.852-5.7734-9.1562 6.3594-22.32 20.711-25.586 31.754-11.652 39.254 64.367 58.766 62.891 4.6797-0.17969-6.6367-4.5234-18.168-7.2344-24.793 12.469-6.0469 35.762-7.5469 45.949-0.39453-25.32 87.312-6.0234 157.81 36.492 211.5 8.2695 10.656 10.656 20.016 7.1758 28.055-6.2773 9.7305-3.2891 21.863 8.9531 36.395 8.4492 11.566 17.809 33.672 30.434 73.824-1.5469 21 10.633 24.492 17.293 7.9219 0 0 2.0742 6.8633 3.8047 12.875 1.5859 5.5195 4.8594 10.246 10.43 10.402h32.23c10.98-0.96094 17.281-4.2734 11.508-14.281-4.5977-7.9688-10.969-18.059-20.977-29.293 12-7.3672-50.34-53.723-14.52-102.43 8.0625 12.07 17.062 33.887 28.957 71.699-1.5469 21 10.621 24.492 17.293 7.9219 0 0 2.0742 6.8516 3.8047 12.875 1.5859 5.5195 4.8711 10.246 10.43 10.402 24.875 0 54.227 3.8867 43.738-14.27-4.5977-7.9688-10.969-18.059-20.977-29.293 6.9102-4.2461-16.777-29.555-9.6602-39.695 117.27 44.172 211.62-0.085938 311.5-2.832 0 7.668 0.46875 15.312 1.5 22.922 3.1914 23.578 13.129 45.77 16.871 69.469l0.25391 1.668 0.10547 0.76172 0.10547 0.71484c0.44531 3.8516 0.39453 7.7148 0.63672 11.566 0.75781 12.383 9.5391 20.062 14.531 5.6523 0.51562-1.5 0.875-3.0234 1.1289-4.3789l0.14453 0.53906c1.1992 4.668 1.8828 11.305 3.7305 16.164 1.3438 3.2891 2.7344 4.1289 5.9883 4.1289h39.301c5.9414-0.070313 7.0547-1.957 5.6992-6.1914-3.5156-9.9375-11.027-19.344-16.309-28.465 1.2227-4.4883-2.3867-12.66-4.3438-16.922-3.2383-6.9961-6.6719-13.812-8.7109-21.277l-0.17969-0.73047-0.16797-0.74219-0.1875-0.73828c-4.1406-19.402 0.97266-36.359 9.6836-53.578 4.2734 16.055 9.9258 29.855 12.996 50.41 0.80469 5.4258 0.50391 8.9648 0.89844 14.062 1.2734 16.188 12.59 16.512 15.602 0.25391 3.0977 11.543 2.5078 20.82 9.0234 20.82h40.141c13.117 0 3.5156-10.176-10.621-34.656 2.3398-8.7461-10.211-24.66-13.586-40.414-2.1836-10.223-2.0391-19.906 0.57422-30.324 14.293-7.0664 39.707-14.762 76.262-23.102 28.98 1.0547 106.19-11.531 148.41-47.004 25.008 1.1172 32.398-5.0039 35.328-18.07 0 0 10.848-2.7227 18.516-6.6953 0 0 0.83984-21.973 1.6445-58.176-9.2344-8.293-15.5 2.3008-25.051 0.023438zm-975.66-54.914c3.2891-11.074 17.953-17.461 27.961-19.633 3.168 6.0117 6.6484 14.352 6.8164 20.664 0.875 32.211-40.082 16.824-34.777-1.0312zm871.86 28.836c-6.1445 0-11.125-4.9805-11.125-11.125 0-6.1445 4.9805-11.125 11.125-11.125 6.1445 0 11.125 4.9805 11.125 11.125 0 6.1445-4.9805 11.125-11.125 11.125z" fill="#312a29" fill-rule="evenodd"/>
</svg>
