<?xml version="1.0" encoding="UTF-8"?>
<svg width="1200pt" height="1200pt" version="1.1" viewBox="0 0 1200 1200" xmlns="http://www.w3.org/2000/svg">
 <path d="m478.31 1065.8 5.1562 7.8281c-12.75 8.3438-26.016 12.797-38.578 15l-3.8438 11.531c24.469-3.7969 65.391-13.078 80.156-34.125 1.7812-2.5312 3.3281-5.3906 4.7812-8.3906-5.2969-1.5938-10.969-5.4375-12.047-13.5-1.4531-10.969 18.047-45.188 25.219-57.375 0.14062-6.5156 0.09375-11.578 0-14.531-3.1406-1.3594-6.2812-2.9062-9.2812-4.7812-7.0312 20.016-28.453 73.031-49.547 84.281-9.1406 4.875-31.875 13.547-42.609 15.047-5.5312 0.9375-12.375 0.42188-20.297-0.1875-8.5781-0.65625-18.281-1.3594-27.469-0.14062-8.0625 1.0781-26.438 7.6875-34.219 18.703-0.84375 1.2188-1.5469 2.4375-2.0625 3.6562 13.453-8.7656 22.688-9.7031 33.891-10.828 0.28125-0.046875 0.9375-0.09375 1.2188-0.046875 1.5 0.09375 3.6094 0.42188 6.2812 0.79688 15.516 2.2969 51.844 7.6406 83.344-12.984z" fill="#312a29"/>
 <path d="m204.74 171c-9.5625-19.734-27.094-32.25-33.656-36.422-0.046876 0-0.09375 0.046875-0.14063 0.09375-4.4531 2.3438-8.8594 4.3125-13.266 6.2344-3.7969 1.6875-7.5469 3.3281-11.25 5.25-14.766 7.6875-26.812 19.266-35.719 33.656 16.688-7.5469 47.812-16.266 93.984-8.8594z" fill="#312a29"/>
 <path d="m596.48 928.87c-36.984 0-71.297-5.3438-91.031-9.1875 6.9844 29.766 36.375 49.922 59.672 48.281 18.375-1.2656 29.531-15.516 31.359-39.094z" fill="#312a29"/>
 <path d="m529.55 1049c4.5469-12.703 6.9844-27.375 8.2969-40.688-8.4844 15.844-15.188 30.656-14.672 34.688 0.5625 4.0781 3.8438 5.4844 6.375 6z" fill="#312a29"/>
 <path d="m604.64 1106.9c-1.4062-0.32812-2.5312-1.2656-3.1875-2.5312-0.98438-2.0625-4.5469-6.5625-8.1562-8.25-1.4062-0.65625-4.9219-1.6406-8.5781-2.7188-7.5-2.1562-17.766-5.1094-25.781-9.2812-3.1875-1.6406-5.1094-4.875-5.0625-8.4844 0.23438-13.922 3.6562-26.953 6.9844-39.562 2.0156-7.5938 4.0781-15.469 5.3438-23.344 1.3125-5.4844 2.0625-10.875 2.9062-16.547 0.98438-6.6562 2.0156-13.5 3.8438-20.062-2.2969 0.5625-4.6875 1.0312-7.2188 1.2188-1.0781 0.09375-2.1562 0.09375-3.2344 0.09375-4.5469 0-9.2344-0.70312-13.922-1.9219 0.28125 17.953-0.75 68.719-19.781 95.906-21.141 30.188-84.281 38.391-103.12 40.172-0.5625 0.09375-23.672 7.4531-29.297 26.062 7.7812-7.7812 18.375-16.453 27.094-16.453h1.5469c40.734 0.70312 68.953-11.062 85.359-21l4.8281 8.0156c-9.5625 5.7656-22.969 12.094-40.125 16.594-3.0469 1.9688-12.703 11.203-11.672 24.938 5.5781-7.6406 11.438-12.938 18.094-18.047 0.89062-0.70312 2.0625-1.0781 3.2344-0.9375 12.656 0.9375 26.625-8.9531 37.828-16.969 8.625-6.1875 15.469-11.062 21.703-11.672 13.078-1.3594 31.125 4.875 47.062 10.406l1.125 0.375c9.2344-2.0156 21.562 2.7656 31.594 6.6562 1.6406 0.60938 3.4688 1.3594 5.25 2.0156-3.1406-4.9219-9.9375-11.25-24.656-14.672z" fill="#312a29"/>
 <path d="m236.16 140.11c0 10.125 11.812 18.375 26.344 18.375 0.51562 0 0.98438-0.09375 1.5-0.09375 1.5469-0.1875 3-0.28125 4.5-0.42188 11.625-1.9219 20.297-9.1406 20.297-17.859 0-10.125-11.812-18.375-26.344-18.375s-26.344 8.25-26.344 18.375zm15.891 6.2812c-3.7031 0-6.7031-3-6.7031-6.7031s3-6.7031 6.7031-6.7031 6.7031 3 6.7031 6.7031-3 6.7031-6.7031 6.7031z" fill="#312a29"/>
 <path d="m328.82 492.42c-39.234 158.81 139.36 279.47 243.66 308.72 63.938 17.953 120.84 20.156 171.05 22.078 9.8906 0.375 19.641 0.75 29.203 1.2656 77.344 3.0469 127.97-18.234 156.47-36-44.203 18.047-82.172 25.547-114.75 25.547-75.75 0-122.95-39.516-155.02-75.469-39.375-44.109-78.047-69.422-78.422-69.656l5.1094-7.875c1.6406 1.0312 40.172 26.25 80.344 71.297 25.547 28.641 86.906 97.359 216.37 62.156-76.312-3.2344-153.74-65.016-174.84-83.109-1.7812 4.5-4.0781 8.9531-7.0781 13.453l-7.7812-5.2031c40.641-60.656-61.078-130.08-62.109-130.78l5.25-7.7812c4.0312 2.7188 87.703 59.812 74.719 120.42 16.641 14.578 132.98 111.89 220.87 75.797 7.5938-3.2344 15.422-6.75 23.438-10.688-0.84375-1.6406-1.6406-3.3281-2.4375-5.0156-5.5781 1.9219-11.484 2.8125-17.531 2.8125-28.969 0-60.984-19.219-75.75-29.25-0.1875 7.7812-1.7812 15.703-5.3906 23.812l-8.5781-3.7969c26.156-59.109-67.922-114.09-88.969-125.48-0.98438 1.875-1.9688 3.75-3.1406 5.625l-7.9688-4.9219c10.031-16.266 12.281-32.344 6.7969-47.766-16.219-45.656-93.797-73.125-94.547-73.359l3.0938-8.8594c3.375 1.1719 82.594 29.25 100.31 79.078 4.875 13.641 4.6406 27.609-0.60938 41.625 17.812 9.4219 89.062 50.203 98.109 101.86 8.8125 6.4688 57.281 40.312 90.047 29.906-0.79688-1.7812-1.6875-3.4219-2.4844-5.25-82.828-179.39-252.61-328.4-412.82-362.26-3.75-0.75-7.2656-1.8281-10.875-2.7656l-0.046875 0.23438c-6.5625-0.89062-161.48-20.672-193.64 109.5zm400.69 309.71 0.75 9.3281c-8.0625 0.60938-15.938 0.9375-23.625 0.9375-133.78 0-211.03-90.516-211.82-91.5l7.1719-6c0.84375 0.98438 84.375 98.531 227.58 87.234zm-214.97-365.21c1.125 0.14062 110.25 17.203 104.02 131.53l-9.375-0.51562c5.7656-105.66-91.828-121.13-96-121.74zm-33.516 81.891c1.125 0.46875 114.47 48.094 79.219 144.24l-8.8125-3.2344c32.109-87.656-69.609-130.55-73.969-132.32zm-47.062 62.484c2.4375 2.0156 59.719 50.016 57.047 94.594-0.98438 16.5-9.9375 30.281-26.578 41.016l-5.0625-7.875c14.203-9.1406 21.516-20.156 22.312-33.703 2.3906-39.844-53.109-86.391-53.672-86.859l6-7.2188z" fill="#312a29"/>
 <path d="m332.26 89.438 0.046876-0.23438c23.953 5.9062 43.688 23.531 59.578 37.688 13.406 11.953 25.031 22.312 33.234 20.719 3.1875-0.51562 5.9531-2.5781 7.9688-5.7188 2.4844-3.9375 3.3281-9.1406 2.1562-13.172-14.156-43.359-77.484-84.609-125.53-81.656-26.531 1.8281-59.625 12.188-75.281 31.172 45.656-8.7656 77.016-0.70312 97.828 11.156z" fill="#312a29"/>
 <path d="m216.79 175.55c0.84375 2.4375-0.46875 5.0625-2.9062 5.9531-0.1875 0.046875-16.219 6-28.219 21.938 12.75 17.438 25.594 33.469 41.062 41.906 0.79688 0.46875 1.5 1.0312 2.1094 1.6875 4.2656 2.625 39.469 23.203 74.203 8.8125 35.203-14.578 43.219-53.156 42.188-58.594-3-5.5312-21.469-34.547-75.188-30.047-1.125 0.1875-2.2969 0.23438-3.4688 0.32812-1.1719 0.14062-2.25 0.1875-3.4688 0.32812v-0.046875c-0.1875 0-0.375 0.046875-0.60938 0.046875-19.688 0-35.719-12.469-35.719-27.75s16.031-27.75 35.719-27.75 35.719 12.469 35.719 27.75c0 6.7031-3.1875 12.75-8.2969 17.578 43.969 3.2344 60.609 29.672 63.891 35.812 2.2031 4.125-0.09375 15.141-3.1406 23.625-4.6406 12.797-16.453 36-43.969 47.391-10.266 4.2656-20.438 5.8594-29.953 5.8594-19.641 0-36.375-6.7969-45.656-11.484-1.5938 22.594-7.4062 43.5-15.422 63.328 29.578 14.906 68.672 16.359 108.33 3.6094 37.266-12 68.484-34.641 80.297-57.984-5.0625-15.938-9.1875-32.344-13.172-48.422-8.8594-36-17.25-70.031-35.344-96.422-11.484-16.781-47.062-53.297-130.6-33.188-13.312 15.516-29.391 29.625-45 39.469 10.219 7.125 28.641 22.594 36.656 46.219z" fill="#312a29"/>
 <path d="m197.81 179.39c-28.219-3.7969-50.109-1.125-65.859 3.0938 14.766 2.3438 31.125 8.5312 46.312 15.141 6.3281-8.3906 13.5-14.297 19.5-18.234z" fill="#312a29"/>
 <path d="m569.95 810.19c-129.1-36.234-287.86-167.63-250.22-320.02 24.984-101.25 121.6-116.86 172.36-117.84-36.328-16.312-63.328-43.359-79.031-79.781-1.7344-4.2188-3.2812-8.5312-4.8281-12.891-15.234 22.688-45.844 43.688-81.422 55.125-19.031 6.0938-38.016 9.1406-56.062 9.1406-21.516 0-41.531-4.5469-58.781-13.078-7.125 16.266-15.375 31.969-23.625 47.438-6.75 12.703-13.734 25.828-19.875 39-52.266 105.14-33.094 239.68 47.578 334.92 59.906 72.656 190.18 136.55 281.53 156.37 16.922 3.6562 61.406 12.094 108.28 10.875 38.766-0.98438 76.406-9.7969 111.84-26.062 11.766-4.875 22.734-10.922 33.375-16.688 23.578-12.891 47.906-26.203 79.453-26.719 17.016-0.14062 46.734 5.8594 66.328 12.188-44.859-25.078-94.406-27.141-153.66-29.438-50.719-1.9688-108.23-4.1719-173.21-22.453zm-151.6-455.21c7.5469 8.7188 1.2188 12.75-1.2188 13.5-8.3906 2.5312-13.078-10.641-12-24.328 0 0 6.375 2.9062 13.219 10.781zm-6.75-37.828c8.0625 8.3906 1.8281 12.844-0.65625 13.734-8.3906 3-13.734-10.078-13.266-23.953 0 0 6.6094 2.625 13.875 10.219zm-41.016 6.9844s6.2344 3.3281 12.562 11.672c6.9844 9.2344 0.32812 12.891-2.2031 13.5-8.625 2.0156-12.422-11.484-10.359-25.125zm-5.9062 36.656s6.5156 3.8438 12.938 12.984c7.125 10.172-0.09375 13.781-2.8125 14.297-9.2344 1.7812-12.797-12.844-10.125-27.328zm-31.688-20.625s6 4.2656 11.484 13.688c6.0469 10.453-1.3125 13.359-3.9844 13.641-9.1875 0.98438-11.344-13.5-7.4531-27.328zm-5.2969 46.125s5.7656 4.8281 10.594 14.906c5.3438 11.156-2.3438 13.547-5.1094 13.641-9.375 0.23438-10.5-14.719-5.4844-28.547zm-30.609-34.266s5.25 5.7656 8.7656 16.828c3.8906 12.188-4.3594 13.594-7.1719 13.266-9.6562-1.0781-8.6719-16.594-1.5938-30.047zm-97.688 33.422s-1.5 6 2.0156 17.859c3.4219 11.672-6.4219 15.422-11.391 10.641-7.4531-7.1719-1.8281-16.781 9.375-28.5zm-38.109 144.84c-10.125-6.6562-5.7188-18.984 4.6875-34.969 0 0-0.42188 7.2188 6.1875 20.203 6.4688 12.75-4.0781 19.219-10.875 14.719zm31.359 54.422c-11.625-3.7031-10.734-16.828-5.0156-35.109 0 0 1.5469 7.125 11.531 17.859 9.75 10.547 1.3125 19.734-6.4688 17.25zm-2.5312-116.06c-8.2969-7.9688-2.0625-18.703 10.453-31.781 0 0-1.6406 6.6562 2.25 19.922 3.8438 12.984-7.125 17.203-12.703 11.859zm19.125 49.547c-9.4219-2.5312-6.1406-17.672 2.9062-29.953 0 0 4.3125 6.5156 6.1406 17.906 2.0156 12.656-6.3281 12.797-9.0469 12.047zm22.078-170.72s-1.7344 7.0312 2.3438 20.953c4.0312 13.688-7.5 18.094-13.359 12.469-8.7188-8.3906-2.1562-19.688 11.016-33.422zm-4.6875 81.281c-7.4531-7.1719-1.8281-16.781 9.375-28.5 0 0-1.5 6 2.0156 17.859 3.4219 11.672-6.4219 15.422-11.391 10.641zm25.172 135.79c-9.7031-0.60938-9.4688-16.172-3-29.953 0 0 5.4844 5.5312 9.5156 16.359 4.4531 12-3.7031 13.781-6.5156 13.594zm0.84375-83.297c-9.4219-2.5312-6.1406-17.672 2.9062-29.953 0 0 4.3125 6.5156 6.1406 17.906 2.0156 12.656-6.3281 12.797-9.0469 12.047zm6.1406-94.266c-10.406-3.0469-6.375-19.875 3.9844-33.328 0 0 4.6406 7.3594 6.4219 20.109 1.9219 14.156-7.3594 14.062-10.406 13.172zm15.328 39.469c-10.031-5.6719-6.6562-17.625 2.25-33.375 0 0 0.046875 6.8906 7.125 18.75 6.9375 11.625-2.625 18.422-9.375 14.625zm18.141 91.828c-9.7031-0.60938-9.4688-16.172-3-29.953 0 0 5.4844 5.5312 9.5156 16.359 4.4531 12-3.7031 13.781-6.5156 13.594zm8.8594-65.953c3.2812-12.844 1.5-19.406 1.5-19.406 12.328 13.172 18.609 23.859 10.969 31.406-5.1094 5.0625-15.703 0.60938-12.469-12z" fill="#312a29"/>
 <path d="m960.66 776.48c-12.469 12.141-51.797 44.25-125.68 54.469 37.781 6.8906 72.609 20.859 105.05 51.281 2.0625 0.98438 4.0781 2.0156 6.1875 2.9531 39.609 17.438 77.062 24.516 111.38 21.141 13.078-1.3125 26.766-4.2188 35.25-7.2188-24.141-10.359-87.844-44.016-132.24-122.63z" fill="#312a29"/>
</svg>
