<?xml version="1.0" encoding="UTF-8"?>
<svg width="1200pt" height="1200pt" version="1.1" viewBox="0 0 1200 1200" xmlns="http://www.w3.org/2000/svg">
 <path d="m737.26 322.87s6.4219 13.922 22.031 3c28.875-20.25 58.688-10.734 58.688-10.734-15.75-29.812-25.312-136.4-31.547-155.21-6.2344-18.75-88.688-155.9-123.32-136.74-50.062 27.75 11.344 201.42 32.391 219.84 25.031 21.891 41.766 79.828 41.766 79.828z" fill="#312a29"/>
 <path d="m1052.7 500.39c0-32.156-3.5625-25.031-58.078-104.53-54.516-79.547-113.95-67.453-176.95-73.734s-70.594 58.547-99.188-22.781-152.81-141.19-211.78-151.03c-58.969-9.8438-29.625 33.703-25.031 42.891 57.984 117 241.74 210.47 241.74 210.47s-10.734 15.188-29.906 64.781c-19.219 49.594 27.703 0.89062-233.26 108.19-260.95 107.25-266.95 393.14-233.02 415.74 33.938 22.641 35.719 48.844 35.719 48.844-23.25-37.547-139.4-98.297-111.38 25.594 28.031 123.94 145.36 50.062 145.36 50.062 10.125 20.25 52.453 33.375 52.453 33.375 2.9531-41.109 32.156-45.891 32.156-45.891-43.5 53.625 19.641 76.266 19.641 76.266s321.71-3 338.95-4.1719c17.297-1.1719 18.469-24.422 18.469-24.422-1.7812-51.234-50.672-52.406-50.672-52.406l-210.89 4.7812 152.29-10.219s65.438-39.281 56.812-93.469c-33.234-209.06-304.92-163.22-304.92-163.22 233.53-53.625 306.79 113.77 306.79 113.77l22.641-19.641c-20.25-116.77 5.3438-131.06 5.3438-131.06-20.25 40.5 13.266 180.79 27.562 276.84 14.344 96.094 74.906 103.22 74.906 103.22h69.703s24.422-6.5625 25.641-27.703c4.0312-72.422-104.86-38.109-104.86-38.109 13.078-9.9375 33.656-13.406 33.656-13.406-30.234-302.34 30.094-333.19 30.094-333.19-26.344 41.531-26.812 100.88-26.812 100.88 87-57.75 55.969-261.28 55.969-261.28-115.27-10.734-141.74-70.594-141.74-70.594 155.48 117.09 272.58-2.6719 272.58-34.828zm-157.31-88.922c0-10.875 8.8125-19.641 19.641-19.641 10.875 0 19.688 8.8125 19.688 19.641 0 10.875-8.8125 19.688-19.688 19.688-10.828 0-19.641-8.8125-19.641-19.688z" fill="#312a29"/>
</svg>
