<?xml version="1.0" encoding="UTF-8"?>
<svg width="1200pt" height="1200pt" version="1.1" viewBox="0 0 1200 1200" xmlns="http://www.w3.org/2000/svg">
 <path d="m1072.1 259.93c1.418-9.5156 0.34766-19.238-3.1055-28.215-5.9453-13.242-14.965-24.875-26.312-33.926-27.215-22.707-61.383-35.41-96.82-36.004-35.742-0.21484-70.672 10.664-99.977 31.133-43.316 31.699-76.465 75.324-95.395 125.55-15.238 17.156-33.176 31.707-53.102 43.082-52.492 34.426-101.77 73.52-147.23 116.8-43.656 41.055-84.441 85.062-122.07 131.71-2.5938 4.1328-5.8047 7.8438-9.5156 11.012-40.305 25.926-82.02 49.59-124.95 70.887-11.242 5.2344-21.648 12.113-30.871 20.41-2.6055 2.3281-4.4219 5.4141-5.1914 8.8203-0.77344 3.4102-0.46094 6.9766 0.88672 10.199 3.918 5.3516 10.094 8.5859 16.723 8.7656 17.992 1.4531 36.086 1.0312 53.992-1.2539 70.324-8.9648 139.4-25.934 205.87-50.578 18.277-7.0039 36.129-15.074 53.461-24.168 28.66-15.059 57-30.707 85.02-46.945 52.055-30.426 101.95-64.406 151.4-98.828v0.003907c11.957-5.8789 24.328-10.879 37.012-14.957 7.5469-2.7266 14.578-6.7227 22.227-9.1406h0.003906c-13.383 15.457-28.652 29.172-45.453 40.82-22.383 15.352-46.188 28.488-69.551 42.262-47.168 26.875-94.418 53.598-142.45 78.863-24.371 12.949-49.809 23.773-74.559 35.828h0.003906c85.164-20.754 166.92-53.586 242.78-97.508 30.574-17.523 58.883-38.738 84.281-63.168 12.695-13.277 24.66-27.23 35.848-41.797-0.92578 3.1875-2.1602 6.2773-3.6875 9.2266-11.172 20.426-25.176 39.168-41.59 55.672-24.852 25.18-51.859 48.129-80.719 68.59-24.293 18.492-50.633 34.129-78.5 46.602-69.141 26.629-140.85 46.035-213.98 57.906-41.094 6.7578-82.414 11.914-123.95 15.473v-0.003906c-44.652 43.867-94.031 82.645-147.23 115.62-55.141 36.5-111.91 70.441-169.37 103.15v0.003907c-15.883 7.3945-29 19.648-37.461 34.988-1.6484 3.3242-2.3789 7.0273-2.1133 10.73 0.26562 3.6992 1.5156 7.2617 3.6211 10.316 6.8242 5.0195 15.223 7.4297 23.672 6.7891 6.3633 0.57812 12.75-0.88281 18.23-4.168-0.75391 6.6719 1.0469 16.484 9.0742 17.598 13.164-0.29297 25.902-4.7227 36.414-12.656 21.953-13.602 42.414-29.434 63.219-44.695 31.574-23.188 62.656-47.031 94.336-70.082 49.25-38.531 103.99-69.473 162.41-91.797 34.012-13.586 70.41-20.191 107.03-19.434 25.414 2.8828 48.824 15.188 65.605 34.492 9.0039 9.9297 17.219 20.566 26.859 29.914 31.73 31.695 63.34 63.531 95.93 94.352l-0.003906-0.003906c8.6875 6.5312 15.285 15.445 18.988 25.66 0.51953 6.9414-4.1562 13.203-10.961 14.68-21.023 6.4141-43.832 2.8164-61.863-9.7578 7.5781 13.77 20.914 23.426 36.359 26.328 25.914 3.3594 52.215 2.1641 77.715-3.5352 33.547-4.2031 67.422-1.3359 101.04-4.2031v0.003906c18.727-2.2227 37.617-2.7031 56.43-1.4414-6.875-4.7734-14.289-8.7109-22.09-11.734-28.473-10.766-58.805-15.758-89.223-14.68-12.082 0.90625-24.227 0.035157-36.055-2.5898 14.176-1.0781 28.25-3.2109 42.109-6.3789 25.629-5.3516 51.836-7.418 77.988-6.1602 30.84 0.97656 61.711 1.9727 92.586 1.8008h-0.003906c-9.6055-6.7383-20.395-11.613-31.801-14.371-29.379-8.043-59.562-12.797-89.992-14.168-17.551-1.168-34.586-6.4453-49.723-15.402-24.102-14.094-47.012-30.133-68.504-47.957-17.855-13.816-34.938-28.602-51.18-44.281 28.16-1.2539 56.168-4.8398 83.734-10.723 38.977-8.25 76.215-23.23 110.05-44.266 47.234-30.352 86.648-71.414 115.04-119.86 19.594-34.285 32.387-72.027 37.68-111.16 4.2812-28.43 1.9492-57.465-6.8086-84.852-7.9141-18.188-14.793-36.809-20.598-55.773-1.5938-14.379 1.5703-28.879 9.0039-41.285 6.7695-13.324 14.961-25.871 24.441-37.426 1.957-2.4023 5.3164-2.5547 8.0938-3.4297 35.496-8.4766 71.809-13.078 108.3-13.723-34.25-21.957-71.934-38.031-111.48-47.559zm-555.09 305.62c29.789-10.262 61.387-14.234 92.789-11.664-14.109 8.1289-29.02 14.785-44.492 19.863-30.289 10.918-61.941 17.602-94.059 19.859 12.66-13.039 28.395-22.688 45.758-28.059zm158.84 9.4844c-37.355 16.621-75.605 31.113-114.02 45.004-30.629 12.066-62.273 21.371-94.559 27.805-12.383 2.2773-24.883 3.875-37.441 4.7852 22.023-10.941 45.539-18.594 68.469-27.391 61.473-22.023 121.83-47.098 181.45-73.699l0.003906-0.003907c16.066-7.7617 33.938-11.02 51.711-9.4336 0.83984 0.32422 2.5391 0.97656 3.3789 1.2852v0.003906c-18.492 12.598-38.262 23.203-58.984 31.645zm205.2-100.08c-26.676 16.09-55.555 28.211-85.723 35.984-46.664 11.734-94.637 17.449-142.75 17.016-13.895 0.27734-27.785-0.85547-41.453-3.3789-4.0391-0.42578-7.7656-2.375-10.414-5.4531-0.27344-4.6836 4.4609-7.4258 7.6172-10.016v-0.003906c15.707-8.5039 33.25-13.059 51.113-13.273 40.391-2.0742 80.852-3.2266 121.05-7.8359 42.879-3.1172 84.828-14.031 123.78-32.211-6.7031 7.5508-14.535 14.02-23.223 19.172zm-99.117 437.76c10.227 6.7188 19.496 14.797 27.543 24.012 1.8047 1.9766 3.043 4.4023 3.5938 7.0195 0.54688 2.6172 0.38672 5.3359-0.46875 7.8672-3.3594 4.4453-8.6523 7-14.219 6.8633-13.668-0.26562-27.148-3.2617-39.641-8.8164-5.0234-2.7539-10.262-5.1055-15.656-7.0312 4.1172 7.3516 9.2109 14.113 15.145 20.102-2.4961-1.5898-4.8242-3.4297-6.9453-5.4922-24.168-23.395-47.219-47.871-69.738-72.859-17.305-17.645-32.176-37.523-44.219-59.105 10.531 2.3242 21.207 3.9258 31.953 4.7891 8.7148 10.754 19.047 20.09 30.633 27.664 27.133 18.625 54.887 36.344 82.02 54.988zm186.18-649.12c-5.5 1.5-10.691 3.9727-15.316 7.3086 0.085938-4.7617 1.5781-9.3945 4.2891-13.309 1.957-2.9844 4.9336-5.1523 8.3711-6.1094s7.1055-0.63281 10.324 0.91016c5.8008 3.4961 9.9727 9.1523 11.594 15.727-5.6484-3.8164-12.504-5.4297-19.262-4.5273z" fill="#312a29"/>
</svg>
