<?xml version="1.0" encoding="UTF-8"?>
<svg width="1200pt" height="1200pt" version="1.1" viewBox="0 0 1200 1200" xmlns="http://www.w3.org/2000/svg">
 <path d="m598.97 331.26-2.3906-141.98c13.781-27.328 41.719-46.922 71.953-50.297 13.031-1.4531 36.703-0.75 54.516 18.375l-44.203 185.44c-25.781-6.9375-52.453-10.781-79.875-11.531zm507.14 168.14-207.74 59.578 7.7812 41.859h37.266c6.6562 0 12.141 5.4375 12.141 12.141v17.719l124.36-3.5156c26.719-15.047 45-43.828 46.969-74.156 0.84375-13.125-0.84375-36.75-20.766-53.625zm-261.89-48.328 130.87-92.25 58.125-45.844c11.203-8.8125 19.406-19.781 23.672-31.594 9.5625-26.531 5.8594-54.703-10.172-77.25-15.609-21.984-40.031-34.547-67.078-34.547h-0.89062c-21.891 0.23438-42.656 11.25-56.672 29.625-0.09375 0.1875-0.14062 0.375-0.28125 0.5625l-127.36 199.26c18.516 14.156 35.203 31.781 49.734 52.078zm-72.188-67.266 126.32-193.22c1.0312-1.5938 2.25-3 3.3281-4.5 3.0469-5.1562 3.6562-11.297 1.4531-16.312-11.344-25.828-34.969-43.688-64.828-49.031-31.922-5.7188-65.438 3.9844-85.453 24.703-1.7812 1.8281-3.0938 4.5469-3.8906 7.8281l-0.60938 2.625c-0.046875 0.46875 0.09375 0.9375 0 1.4062l-45.891 192.84c24.094 8.4375 47.297 19.688 69.516 33.703zm89.953 95.156c9.9844 17.859 18.469 37.172 25.359 57.469l217.69-62.344c0.46875-0.14062 0.98438 0 1.4531-0.09375l2.5312-0.75c3.2812-0.9375 5.9062-2.3906 7.6406-4.2656 19.781-20.906 27.938-54.891 20.812-86.484-6.7031-29.578-25.641-52.359-51.938-62.531-5.25-2.0156-11.672-1.0781-16.781 2.5312l-79.172 55.828-127.6 100.59zm69.281 161.68v-15.516h-161.86c-6.7969 0-12.141-5.3438-12.141-12.141 0-6.6562 5.3438-12.141 12.141-12.141h109.31c-13.359-82.266-54.141-156.19-113.81-192.94-165.66-109.22-347.9-24.891-446.53 39.328-0.14062 6.4219-0.23438 12.75-0.60938 19.031-1.5938 24.656-6.0469 60.938-26.812 91.125-17.953 26.203-46.219 44.531-77.531 50.25-8.1094 1.4531-16.125 2.2969-24.047 2.2969-16.734 0-32.297-3.375-46.125-9.9375s-25.828-16.031-35.531-28.406c-11.062 30.094-14.578 65.906-10.781 103.41 8.25 84.562 55.594 159.56 122.44 212.11 61.5 48.422 129.84 77.531 204.32 88.453v117.7h-72.188c-20.625 0-37.5 16.875-37.5 37.5 0 3.2812 2.6719 5.8125 5.9531 5.8125h154.45c3.2812 0 5.8125-2.5312 5.8125-5.8125 0-17.109-11.531-31.406-27.188-35.812v-116.02c51.188 4.2656 105.33 0.14063 162.24-11.906v126.19h-72.328c-20.625 0-37.359 16.875-37.359 37.5 0 3.2812 2.5312 5.8125 5.8125 5.8125h177.89c3.2812 0 5.8125-2.5312 5.8125-5.8125 0-20.625-16.734-37.5-37.5-37.5h-13.125v-132.89c10.312-2.6719 20.766-5.4375 31.172-8.625 46.594-14.062 84.328-36.141 114.33-63.703-1.0781 0.14062-2.0625 0.14062-3.1406 0.14062h-143.53c-140.9 0-255.66-114.66-255.66-255.66v-19.547c0-6.6562 5.4375-12.141 12.141-12.141 6.7969 0 12.141 5.4375 12.141 12.141v19.547c0 127.64 103.88 231.42 231.42 231.42h143.53c39.188 0 71.953-27.562 80.109-64.453-4.5 0.84375-9.0938 1.3125-13.828 1.3125h-165.66c-6.6562 0-12.141-5.3438-12.141-12.141 0-6.6562 5.4375-12.141 12.141-12.141h165.66c25.125 0 45.984-18.562 49.641-42.703v-0.14062c0.375-2.4375 0.60938-4.875 0.60938-7.4062v-14.578c-7.0312 2.2969-14.578 3.5156-22.453 3.5156h-158.58c-6.6562 0-12.141-5.4375-12.141-12.141 0-6.6562 5.4375-12.141 12.141-12.141h158.58c9.5625 0 18.562-2.6719 26.203-7.4062 10.312-6.3281 18.188-16.125 21.844-27.891 1.4531-4.7344 2.2969-9.7031 2.2969-15.047zm22.922 14.344c-3.5156 17.578-13.125 32.906-26.578 43.828v27.562c0 5.4375-0.60938 10.688-1.6875 15.797l56.812 3.2812c17.953 0.98438 36.141-2.8125 50.953-13.125 25.359-17.484 39.094-48.516 30.703-80.438l-110.2 3.1406zm-465.94-310.82c27.703-6.9375 56.672-11.344 86.438-12.516l-2.1094-125.76c-32.25-6.8906-62.625 8.2969-78.984 34.406-9.5156 15.188-12.562 33.609-10.734 51.469l5.3906 52.453zm-318.05-80.391c-43.312 0.375-80.812 9.3281-110.2 31.078 0.84375-39.938 25.359-78.75 74.156-101.44-0.375-3.9844-0.60937-8.0156-0.60937-12.141 0-65.062 57.047-117.84 127.4-117.84 44.531 0 88.078 22.922 110.67 61.875 10.312 17.859 14.578 36.891 14.438 55.922-0.23438 28.5-10.453 57.281-24.891 82.875-21 37.031-45.141 71.25-59.109 111.89-9.7031 28.172-6.7969 59.203-8.625 88.828-1.6875 27.562-6.7969 55.922-22.453 78.75-14.297 20.859-37.125 35.672-62.016 40.172-71.484 13.219-113.58-45.516-96.094-111.05 8.25-30.844 25.969-57.984 43.547-84.562 17.484-26.719 35.297-53.859 43.453-84.703 1.4531-5.7188 2.4375-12 1.9219-17.953-11.766-5.7188-22.453-12.984-31.688-21.703zm37.453-87.281c0 15.422 12.516 27.891 27.891 27.891 15.422 0 27.891-12.516 27.891-27.891 0-15.422-12.516-27.891-27.891-27.891-15.422 0-27.891 12.516-27.891 27.891z" fill="#312a29"/>
</svg>
