<?xml version="1.0" encoding="UTF-8"?>
<svg width="1200pt" height="1200pt" version="1.1" viewBox="0 0 1200 1200" xmlns="http://www.w3.org/2000/svg">
 <path d="m595.11 0.18359c-9.9805 2.043-19.27 6.4805-25.457 12.957-5.1641 5.4531-6.8789 8.8633-17.199 29.66-14.453 30.336-17.547 35.453-27.18 45.68-9.6289 9.8828-9.9727 11.25-8.2578 23.184 1.3789 10.227 0.69141 14.316-4.4727 26.93-6.5352 15.344-7.5664 24.547-3.4414 39.543l0.34766 2.3867h8.5977c9.2891 0 13.074 0.34375 18.238 2.3867 2.7461 1.0234 4.4727 2.0508 13.066 7.8398 7.9102 5.1172 17.199 8.5273 22.363 7.8477 7.9102-1.0273 16.168-6.4805 21.672-14.664 5.1641-7.4961 7.9102-7.4961 13.414 0.6875 3.7852 5.7969 8.6016 9.8828 15.137 12.613 8.2578 3.0664 18.578 0.33594 31.996-9.2031 9.6289-6.8164 23.387-9.8906 35.082-7.5039 1.0312 0 1.0312 0 1.7227-2.3867 4.125-14.992 3.0938-24.199-3.4414-39.543-5.1641-12.613-5.8477-16.703-4.4766-26.93 1.7227-11.934 1.3789-13.301-8.25-23.184-9.9805-10.57-12.391-15-27.52-46.023-11.695-24.207-14.797-29.316-22.707-34.434-8.5977-5.4531-22.016-8.8633-29.234-7.8398zm-8.9492 16.367c1.0312 0 0.69141 0.34375-1.0312 0.67969-6.5352 2.3867-11.004 7.1602-11.004 12.613v2.043l-1.0312-1.0234c-6.5391-6.1328 3.7773-17.043 13.066-14.316zm32.684 0c8.2578 1.6992 12.727 9.5469 8.2578 13.98l-1.3789 1.3594v-2.043c0-5.1094-4.8164-10.562-10.664-12.27-2.4102-0.67969-2.4102-0.67969-1.3789-1.0234 1.7227-0.34375 3.1016-0.34375 5.1641 0zm-74.645 74.996c1.7148 0.34375 2.0625 0.6875 2.0625 1.0234-0.34766 0.34375-0.68359 1.3633-1.0312 2.3867l-0.68359 1.707h-2.4102c-9.9805-0.6875-14.453 11.25-6.5391 17.043 1.0312 0.34375 1.7227 1.0234 2.0625 1.0234 0.69141 0.34375-1.3711 4.7734-2.0625 4.4297-1.0312 0-4.4727-2.3867-5.5039-3.7539-8.9414-10.906 0.34766-26.586 14.105-23.863zm120.74 0.6875c9.9727 3.7461 12.727 16.359 5.1641 23.863-1.3789 1.3633-5.1641 3.7539-5.5078 3.4102 0-0.34375-1.3789-4.0938-1.3789-4.4297 0-0.34375 0.34766-0.6875 1.3789-1.0234 8.6016-4.4375 4.4727-18.074-5.5039-17.73l-2.7539 0.34375-1.0312-2.043c-1.0312-2.7305-1.0312-2.7305 0.69141-3.0742 2.4102-0.67969 6.5352-0.33594 8.9414 0.6875zm218.43 100.22c0 5.4531-0.33984 11.594-0.68359 13.637-0.34766 4.4297-0.68359 4.0859 0.68359 3.7539 2.4102-1.0234 7.2266-0.34375 8.9492 1.3633 1.0312 1.0234 1.3711 0 1.3711-6.4805 0.34766-11.926-3.0938-20.797-8.9414-22.156l-1.0312-0.34375zm-568.61-8.1836c-5.5039 1.707-8.9414 10.57-8.6016 22.16 0 6.8164 0.34766 7.4961 1.3789 6.4766 2.0625-1.6992 5.8477-2.7305 8.2578-1.6992 2.0625 0.67969 2.0625 1.0234 1.3789-3.7539-0.34766-2.3867-0.69141-8.5273-0.69141-13.98l-0.33984-9.5469-1.3789 0.34375zm547.29 2.7305s0.34766 2.3867 1.0312 5.1094c1.0312 4.7734 2.0625 12.27 2.0625 14.656 0 0.6875 0 1.0273 0.69141 0.6875 2.0625-1.0234 4.8086-1.0234 7.2188 0 0.69141 0.34375 0.69141 0 0.34766-2.7305-0.34766-7.4961-4.4727-15.68-8.5977-17.387-1.7227-0.67969-2.7539-1.0234-2.7539-0.33594zm48.504 1.6992c-0.69141 5.4531-3.7852 17.387-6.5391 23.863-0.68359 2.3867-1.3711 4.0938-1.3711 4.0938 0 0.33594 1.0312 0.33594 2.4102 0.33594 2.7461 0 5.1562 1.0273 7.2188 3.4102l1.3789 1.707 1.0312-3.7539c2.4102-6.8164 3.1016-10.562 3.1016-16.023 0-6.4766-1.7227-11.25-4.4766-13.637-2.0625-1.6992-2.4023-1.6992-2.7461 0zm-395.94-0.33594c-7.9102 0.67969-13.414 3.4102-17.199 9.1992-5.5039 7.8477-5.1562 12.613 2.0703 27.957 3.4414 7.1602 4.4727 9.8828 4.4727 12.957l0.33984 2.7227 3.1016-2.043c9.2891-5.1094 11.004-5.7969 19.262-5.7969 8.6016 0 10.32 0.6875 18.23 5.7969 9.2891 5.7969 17.199 6.4766 25.801 2.3867 11.695-6.1406 24.078-25.227 24.078-38.184l0.34766-3.7461-1.3789-1.0234-1.0312-1.0273-3.1016 2.0508c-12.035 7.8398-19.262 8.8633-31.988 4.4297-5.8477-2.043-9.9727-4.4297-16.516-9.2031-6.1875-4.7734-9.6289-5.7969-17.883-6.4766-1.7148 0-3.7852 0-4.4727-0.34375-0.34766 0-2.4102 0.34375-4.1328 0.34375zm159.96 0c-7.9102 1.0234-10.32 2.043-16.859 6.4766-19.262 13.98-31.988 15-49.188 4.0859-1.3789-1.0234-1.7227-1.0234-2.0625-0.67969-0.34766 0.34375-1.0312 0.67969-1.3789 1.0234-1.0312 0.67969-0.34766 9.2031 0.68359 12.613 5.8477 16.023 17.891 29.316 29.242 31.359 6.5352 1.3633 11.695 0.34375 20.984-5.4531 6.8789-3.7461 8.2578-4.4297 15.82-4.4297 8.6016-0.34375 11.352 0.6875 19.609 5.7969 3.7852 2.043 3.7852 2.043 4.125-1.3633 0-3.0664 0.69141-4.4297 4.1328-11.594 6.5352-14.316 7.2266-18.746 3.7852-25.906-4.4766-9.2031-14.453-13.293-28.895-11.926zm-340.21 1.0234c-4.125 2.3867-7.5703 9.8828-7.9102 17.379l-0.34766 2.3867 1.3789-0.33594c1.7148-0.6875 4.125-0.6875 5.8477 0l1.3789 0.33594v-1.0234c0-2.043 1.0312-9.8828 2.0625-14.656 0.68359-2.7305 1.0312-5.1094 1.0312-5.1094 0-0.34375-2.0625 0-3.4414 1.0234zm-47.125 0.33594c-6.1953 4.0938-7.2266 18.074-2.0625 31.023l1.0312 2.7305 1.3789-1.707c2.0625-2.043 4.4727-3.0664 7.5664-3.0664h2.0625l-0.68359-2.3867c-2.4102-5.7969-5.5039-17.387-6.8789-24.207-0.69141-3.4102-0.69141-3.4102-2.4102-2.3867zm447.19 2.0508c-1.3789 0-4.4727 1.0234-7.5703 1.6992-3.7773 1.3633-6.5352 1.707-10.66 2.043l-5.5078 0.6875 0.34766 1.0234c4.4727 8.1836 3.4414 15.68-3.4414 30-3.7852 8.5195-4.125 9.1992-4.4727 13.637-0.69141 3.7461-0.69141 4.4297 0 4.7656 0.34766 0 3.4414 1.3633 6.5352 2.7305 20.984 8.1836 49.188 23.863 55.035 30 1.0391 1.0234 1.3789 1.0234 1.3789 0 0-2.043 1.3789-4.0938 8.9414-13.301 8.6016-10.227 19.609-25.227 21.332-29.316 1.0312-2.3867 1.3789-9.2031 1.0312-14.656-0.68359-8.5273-3.0938-11.25-15.137-17.043-20.641-10.227-38.184-14.656-47.812-12.27zm-284.83 0.67969c-13.758 2.3867-38.184 12.957-43.688 18.754-4.4727 4.4297-5.5039 19.434-2.0625 25.906 1.7148 3.7539 11.004 16.367 21.672 29.66 6.1875 7.4961 7.5664 9.5469 7.5664 10.906 0.34766 1.3633 0.34766 1.3633 2.7539-0.33594 10.664-8.8672 37.836-23.184 57.098-30.688 4.1328-1.3594 3.7852-1.0234 3.4414-5.4531-0.33984-4.7734-0.33984-4.7734-4.8164-13.973-6.5352-13.301-7.5664-22.16-3.7773-29.664l0.68359-1.3594-3.7852-0.34375c-4.125-0.34375-8.5977-1.0234-15.82-3.0664-5.5039-1.707-12.035-1.707-19.262-0.34375zm484.68 11.594c-2.0625 4.7734-6.1875 12.613-9.6289 18.066-3.4414 5.7969-3.4414 5.4531-2.7539 5.4531 2.7539 0 7.2266 3.0742 8.2578 5.7969l0.68359 1.3633 1.7227-2.3867c7.9102-12.27 9.9727-25.227 4.8164-30.68-1.3789-1.3633-1.3789-1.3633-3.1016 2.3867zm-671.82-0.6875c-5.1562 5.7969-2.7461 18.41 4.8164 30.688 1.7227 2.3789 1.3789 2.3789 2.7539 0.33594 1.3789-2.7227 5.1562-5.1094 7.9102-5.1094 0.68359 0 0.68359 0-0.69141-2.3867-3.7773-5.4531-9.2812-16.367-12.035-22.504-1.3789-2.7227-1.3789-2.7227-2.7539-1.0234zm605.08 5.4609c-3.7852 1.0234-4.8164 3.4102-4.4727 10.227 0 6.4766-0.34766 5.7969 2.0625 5.4531 0.69141-0.34375 3.4414-0.34375 5.8477-0.6875 5.5039 0 5.1641 0.34375 5.1641-4.7656 0-7.8398-3.1016-11.594-8.6016-10.227zm-539.72 2.043c-3.4414 1.3633-5.1641 7.4961-3.7852 13.637v1.0234h4.125c2.0703 0 4.8164 0 6.1953 0.34375 2.7539 0.67969 2.4102 1.0234 2.4102-5.4609 0.34766-8.1758-3.0938-11.926-8.9414-9.5391zm556.23 0.67969c-2.7539 1.0234-3.7852 2.7305-5.1641 7.8398-0.68359 2.0508-1.0312 3.7539-1.0312 4.0938-0.34766 0.33594 0 0.67969 0.69141 0.67969 4.8086 0.6875 12.035 1.707 12.727 1.707 0.68359 0.33594 2.0625-4.7734 2.0625-7.5039 0-5.1094-4.4727-8.5195-9.2891-6.8164zm-573.78 2.043c-3.7852 1.707-4.8164 4.7734-3.0938 10.57 1.0312 3.7539 0.68359 3.7539 6.1875 2.7305 2.7539-0.34375 5.8477-0.6875 6.8789-1.0234 1.7227 0 2.0625 0 1.7227-0.6875 0-0.67969-0.69141-2.7227-1.0312-4.7734-1.7227-6.4766-5.5078-9.1992-10.664-6.8164zm652.55 5.1172c-6.1875 7.1602-18.914 19.773-25.109 24.883-2.4102 2.043-2.4102 2.043-1.7148 2.3867 5.1562 1.707 8.5977 5.7969 8.9414 10.914l0.34766 2.043 3.0938-2.7305c15.484-12.957 23.734-30 18.922-38.863-1.3789-2.3867-1.3789-2.3867-4.4766 1.3633zm-157.89-2.043c1.0391 2.7227 0.69141 13.637-0.68359 19.434-1.0312 5.1094-6.8789 13.637-19.609 29.66-2.7539 3.7461-6.5352 8.5195-8.2578 10.57l-2.7461 3.4102v2.3789c0.33984 3.0742 0.33984 3.0742 4.8086 6.1406 18.578 12.613 39.906 39.543 55.043 68.863 2.0625 4.4297 3.7773 7.8398 3.7773 7.8398s1.3789-0.67969 3.1016-1.707c1.3789-1.0234 8.9414-5.1094 16.508-8.8633 17.891-8.5195 18.238-9.2031 23.047-16.023 4.8164-7.4961 4.8164-8.5195 5.1641-24.883v-11.934l-1.0312-2.3789c-0.69141-1.3633-2.4102-3.7539-4.8164-6.1406-4.4727-4.7734-4.8164-5.4531-8.2578-12.27l-2.4102-5.4609h-3.4414c-5.8477 0.34375-12.383-5.4531-16.852-14.992-1.7227-3.7539-1.7227-3.7539-6.8789-8.5273-7.5703-7.1602-9.2891-9.5469-10.32-14.656-0.69141-3.7539-0.69141-3.7539-6.1953-5.4531-6.1875-2.0508-6.8789-2.3867-9.9727-6.4805-2.0625-2.7227-4.8164-5.4531-8.9414-8.1836-1.0391-0.67969-1.3789-1.0234-1.0391-0.33594zm-571.71 1.3633c-6.1953 8.5195 2.7461 27.605 18.578 40.223l2.7461 2.0508 0.34766-1.707c0.34766-4.7734 3.4414-8.8633 7.9102-10.57l1.7227-0.67969-3.1016-2.7305c-4.8164-3.7461-19.609-18.41-23.387-23.176-1.7227-2.0508-3.4414-4.0938-3.7852-4.0938-0.34766-0.34375-0.34766-0.34375-1.0312 0.6875zm159.26-0.6875c-3.0938 2.3867-6.1875 5.4531-7.9102 7.8398-2.4102 3.4102-3.7773 4.4297-5.8477 5.1172-1.7148 0.67969-2.4023 1.0234-2.4023 2.7227 0 3.4102-2.0703 6.1406-6.8867 8.5273-3.4414 1.6992-3.7773 2.043-7.9102 6.8164-2.4102 2.3867-5.5039 5.4531-6.1875 6.1406-1.3789 1.0234-2.4102 2.3867-3.4414 4.7656-4.4727 8.5273-12.727 16.707-16.516 16.707-1.7148 0-2.4102 0.67969-5.5039 5.1094-3.7852 5.1172-6.1953 8.1836-10.32 12.613-5.8477 6.1406-5.8477 5.7969-5.1641 25.227l0.34766 10.57 1.3789 3.0664c5.1562 10.914 7.2188 12.613 26.141 21.82 13.414 6.8164 16.516 8.5273 18.578 10.227 1.0312 0.6875 0.68359 1.0234 5.5039-8.1836 10.664-21.133 20.301-34.77 37.5-53.18 9.9727-10.57 12.383-12.957 18.57-16.367 2.7539-1.6992 2.7539-2.043 2.7539-5.7969v-2.043l-4.4727-5.7969c-8.2578-9.8828-19.953-25.227-23.047-30.68-3.4414-5.4531-4.4727-11.25-4.125-20.453v-5.4531s-0.34766 0.33594-1.0391 0.67969zm509.8 2.043c-2.0625 0.6875-3.7852 2.3867-5.1641 4.7734-1.3711 2.7305-1.3711 3.0742 0 3.4102 2.4102 0.34375 7.918 2.043 10.664 3.4102l2.7539 1.3633 1.0312-1.6992c3.0938-6.4805-2.7539-13.645-9.2891-11.258zm-610.58 2.0508c-4.125 2.043-5.5039 6.1328-3.4414 10.227 1.3789 2.7227 0.68359 2.7227 4.125 1.0234 2.7539-1.3633 7.9102-3.4102 10.664-3.7539l1.0312-0.34375-1.3789-2.3867c-2.7461-5.1094-6.8789-6.8164-11.004-4.7656zm303.4 5.7969c-13.758 24.199-34.746 31.359-55.043 18.402-5.8477-4.0859-6.5352-4.0859-13.414-4.0859-6.8789 0-6.8789 0-14.789 4.4297l-4.4727 2.7305v1.3633c0.68359 3.0664 2.4102 6.4766 4.8164 9.1992 4.8086 5.1172 5.8398 8.5273 7.5664 24.891 2.0625 16.359 2.7539 20.789 7.5664 40.562 3.4414 15.68 7.2266 30.344 8.9492 35.453 2.0625 6.4766 3.7773 12.613 3.7773 13.637s0 1.0234 2.0703-0.34375c5.1562-3.4102 14.098-6.1328 26.141-8.5195 8.2578-1.3633 9.9727-1.707 15.477-4.0859 13.766-5.7969 17.547-5.7969 33.375-0.34375 4.4727 1.3633 8.25 2.3867 13.758 3.4102 13.066 2.7227 20.977 5.1094 26.488 7.8398l2.0625 1.3633 0.68359-2.7305c0.34766-1.3633 1.7227-5.7969 2.7539-9.5391 2.0625-7.5039 5.5039-20.461 9.2891-35.797 4.125-17.043 5.1562-22.84 7.2188-41.93 2.4102-16.707 3.1016-19.098 7.2266-23.871 2.7539-2.7227 4.1328-5.1094 5.1641-8.1758 0.33984-2.7305 1.0312-2.0508-4.4727-5.1172-11.359-6.4766-17.199-6.4766-27.18-1.0234-12.383 7.1602-20.293 8.5273-29.582 5.7969-9.2891-2.7305-19.262-11.934-25.801-22.84l-1.7148-3.0664h-6.8828l-1.0312 2.3867zm271.41-1.0273c-6.5352 1.0273-11.352 3.0742-17.883 7.5039-2.7539 2.3867-5.8477 4.4297-6.5391 4.7734l-1.7148 1.0234 6.1875 6.1328c6.1953 5.7969 6.1953 6.1406 7.9102 9.5469 3.4414 6.4766 8.6016 12.613 10.664 12.27 5.8477-1.3633 8.6016 0.34375 13.074 9.8906 3.0938 5.7969 3.4414 6.4766 6.8789 10.227 1.7148 2.043 4.4727 4.7734 5.5039 6.4766 1.0312 1.3633 2.4102 3.4102 3.4414 4.0859 2.0625 2.7305 6.5352 8.8672 9.9727 13.98 2.7539 3.7539 3.1016 4.0938 3.4414 3.7539 18.922-15.68 25.801-25.57 27.18-39.543 1.3789-13.301-13.758-36.484-27.863-43.637-8.9414-4.0938-30.613-7.8398-40.246-6.4805zm-544.54 1.707c-28.895 3.4102-36.121 7.4961-48.504 26.25-14.789 22.16-9.9805 39.543 17.199 62.047l1.0312 1.0234 3.7852-5.4609c4.4727-6.1328 10.66-14.316 11.352-14.992 0.34766-0.34375 1.3789-1.707 2.0625-3.0742 1.0312-1.0234 3.0938-3.7461 5.1641-5.7969 1.7148-2.043 5.5039-6.4766 7.9102-9.8828 5.5039-7.1602 7.5664-8.8633 10.32-9.5469 4.4727-1.3594 8.2578-4.7656 11.695-11.586 2.4023-4.7734 2.7461-5.1172 6.8789-9.5469 6.5352-6.4766 7.2188-7.1602 6.5352-7.5039-0.34766 0-2.0625-1.3594-3.7852-2.7227-8.5977-6.1406-11.352-7.5039-17.883-8.8633-2.7539-0.6875-10.32-0.6875-13.758-0.34375zm596.82 2.043c-0.69141 0.34375-2.0703 1.3633-3.4414 2.3867l-1.7227 2.043 0.69141 0.6875c1.7148 1.0234 3.4414 2.7227 5.5039 5.1094 1.0312 1.3633 2.0625 2.7305 2.7461 3.0664 0.34766 0.6875 1.0312 1.3633 1.0312 1.707 0.69141 0.67969 3.4414-1.707 4.8164-4.4297 3.1016-5.7969-3.0938-12.27-9.6289-10.57zm-644.3 2.3867c-3.7852 2.3867-4.8164 7.1602-2.4102 10.906 1.3789 2.3867 3.4414 4.0938 3.7852 3.7539 2.4102-3.0664 6.1875-7.4961 7.9102-9.2031l2.4102-2.043-1.3789-1.3633c-3.0938-3.0664-7.2266-3.7461-10.32-2.043zm654.96 15.344c-3.0938 1.0234-3.0938 0.67969-0.68359 4.7656 2.7539 4.0938 4.8164 8.5273 6.1953 12.613 1.3711 3.7539 1.3711 3.4102 3.4414 2.0508 9.6289-6.4805 2.7461-22.504-8.9492-19.434zm-664.24 1.6992c-8.9414 2.043-11.352 13.98-3.7852 19.434 2.0625 1.707 2.0625 1.707 3.4414-2.3867 1.3789-4.4297 3.7852-9.2031 6.5391-12.949 1.0312-1.707 1.7148-2.7305 1.3711-3.0742-0.68359-1.0234-4.8086-1.6992-7.5664-1.0234zm226 6.8164c-20.984 8.5273-43.348 21.477-54.352 30.68-1.7227 1.3633-3.7852 3.0742-4.8164 3.7539-8.9414 5.1172-11.352 7.1602-18.23 13.637-18.922 19.09-28.551 32.047-40.246 55.566-2.4102 4.7734-4.8164 9.2031-5.1641 9.8906-0.68359 1.0234-1.0312 1.6992-1.3711 2.3867 0 0.33594-1.0391 1.6992-2.0703 2.7227-3.7773 4.0938-14.098 17.73-17.199 22.84-11.352 18.066-17.883 32.391-21.672 46.367-2.4102 8.5195-3.4414 11.594-5.1562 17.043-3.1016 10.227-6.1953 37.5-4.1328 36.82 0.34766 0 1.7227-0.34375 2.7539-0.6875 2.4102-0.34375 2.7461-0.34375 8.5977-4.0859 11.352-6.8164 20.641-10.57 36.809-13.98 11.695-2.7305 24.078-5.1172 66.395-12.613 48.844-8.5273 65.355-11.934 74.297-15 6.1953-2.043 7.2266-2.7227 8.9414-6.8164 0.34766-1.3633 3.4414-7.4961 6.5391-13.637 14.789-28.293 15.82-39.887 7.9102-67.156-2.7539-9.8906-4.4727-17.043-7.9102-31.023-5.5039-22.84-6.8789-29.316-8.6016-43.637-1.7148-18.746-2.4102-20.109-6.5352-25.227-2.7539-3.0664-3.4414-4.4297-5.1641-8.5195-1.0312-3.0742-0.33984-3.0742-9.6289 0.67969zm207.77-1.6992c-1.0312 3.4102-3.0938 6.8164-5.8398 9.8828-3.7852 4.0859-4.1328 5.1094-6.5391 26.594-2.4102 18.066-10.32 52.836-17.199 75.676-2.7461 9.8906-3.7852 16.367-3.7852 25.914 0 11.594 2.0703 17.387 14.453 42.273l6.8789 13.637 2.7461 1.3633c6.5391 3.0664 15.137 5.1094 47.473 11.25 3.7852 0.67969 9.6328 1.6992 13.074 2.3867 3.7852 0.67969 11.004 2.043 16.516 3.0664 76.023 12.957 87.027 16.023 106.29 27.957 2.4102 1.3594 4.8164 2.3789 5.1641 2.3789s1.7148 0.34375 2.7461 0.6875l2.4102 0.34375-0.33984-3.7539c-1.0312-18.754-2.0703-24.883-5.1641-35.113-1.0312-2.7305-2.7461-8.1836-3.7852-12.613-2.7461-10.227-4.4727-15-7.5664-21.484-9.2891-18.746-20.641-36.812-31.652-49.426-1.3711-1.707-2.7461-3.7539-2.7461-4.0938 0-0.67969-0.34766-1.3633-0.69141-1.3633-0.33984-0.33594-2.7461-4.7656-5.5039-10.227-11.352-22.496-22.703-37.836-40.246-55.566-6.1875-5.7969-8.9414-8.1836-16.852-12.957-2.0625-1.3594-5.1641-3.4102-6.8789-5.1094-6.1953-4.7734-15.137-10.914-23.395-15.68-11.352-6.1406-36.461-17.73-39.215-17.73 0 0-0.34766 0.6875-0.34766 1.707zm-395.24 59.652c-6.8867 9.5469-7.918 11.258-7.918 13.637 0 2.3867-1.0312 4.0938-2.7461 5.4609l-1.3789 1.3633-0.34766 3.7461c-0.33984 5.4531-1.3789 7.1602-5.8477 9.5469-2.7461 1.3633-3.0938 1.6992-4.125 5.1094-1.3789 4.0938-1.7227 4.7734-4.1328 7.5039l-2.4023 2.043v4.0859c0 4.7734-0.69141 6.1406-5.8477 13.98-6.1953 9.8906-7.2266 12.27-6.8789 20.453 0.68359 14.656 6.5352 25.227 16.508 30 24.77 11.594 27.863 13.637 33.027 20.109 1.0312 1.3633 2.0625 2.7305 2.0625 2.7305 0.34766 0.34375 0.68359-0.67969 3.4414-10.906 3.0938-11.934 5.1562-16.707 11.695-28.98 8.9414-17.387 13.066-23.52 26.141-40.57 1.0312-1.3594 1.7227-2.043 1.7227-2.3789-2.0703-1.3633-7.2266-4.0938-18.922-9.8906-18.23-9.2031-20.641-10.906-25.801-18.746-3.4414-5.1172-7.2188-13.98-5.5039-12.277 0.69141 0.34375 0.69141 0 0.34766-1.6992 0-1.0234-0.34766-5.4531-0.34766-9.8828l-0.34766-8.1836-2.4023 3.7461zm589.25 1.707c0 3.0664-0.34766 7.4961-0.34766 9.8828 0.34766 4.7734 0.34766 5.1172-2.0625 9.8906-5.8477 12.27-10.32 16.359-27.863 24.883-11.695 5.7969-17.539 8.8633-18.914 10.227l-1.3789 0.67969 1.7148 2.7305c1.0391 1.3633 3.1016 3.7539 4.4766 5.7969 7.5664 9.5391 15.82 22.84 23.734 38.863 4.8164 9.8828 6.1953 13.293 10.664 28.973 2.0625 7.8477 1.7148 7.5039 3.7773 4.4375 5.1641-6.8164 9.9805-9.8906 29.926-19.098 11.359-5.4531 14.453-8.8633 18.238-20.109 4.8086-13.637 0.33984-33.754-9.6328-45.68-3.7852-4.7734-4.125-5.4531-7.2266-12.957-2.0625-6.1328-3.4414-9.2031-6.8789-14.316-1.0312-2.043-3.0938-5.7969-4.125-7.8398-2.7539-5.1172-13.074-21.484-13.758-21.484 0 0-0.34766 2.3867-0.34766 5.1172zm-295.48 49.09c-3.1016 0.34375-4.8164 0.67969-11.012 3.4102-5.8477 2.3867-8.2578 3.0664-15.137 4.4297-13.414 2.043-22.355 5.1172-27.52 9.2031l-2.4102 1.707 0.34766 2.043c1.7148 13.293-2.7539 29.66-15.82 53.52-2.0703 4.0859-4.1328 8.1836-4.8164 9.8828-1.3789 3.4102-2.7539 5.1172-5.5039 6.8164l-1.7227 1.0234 1.0312 1.707c4.1328 5.1094 7.2266 15.68 13.422 46.023 3.0938 15.336 4.8086 22.84 5.5039 28.973 0.33984 3.0742 1.0312 4.4297 1.3789 4.7734 1.3711 1.0234 4.4727 1.3633 9.6289 1.0234 2.7539-0.34375 8.9414-0.67969 13.422-0.67969 8.25-0.34375 14.445-1.0234 22.703-2.7305 8.2578-1.6992 8.2578-1.6992 11.004-4.7734 5.8477-7.1523 12.043-7.1523 16.168 0.34375 2.0625 3.7539 2.7539 3.7539 21.332 5.4531 5.8477 0.34375 14.445 1.3633 18.914 1.707 15.484 1.6992 15.828 1.3633 16.859-5.4531 1.3789-8.5273 7.9102-40.914 11.004-53.527 3.4414-12.613 5.5039-18.41 7.9102-21.133 1.3789-1.707 1.3789-1.3633-0.68359-2.7305-2.4102-1.6992-3.7852-3.4102-5.1641-6.8164-0.68359-1.3633-3.4414-6.8164-6.1875-11.926-12.043-23.527-15.828-36.477-14.453-50.457l0.34766-4.4297-1.3789-1.3633c-3.4414-2.7305-9.6289-5.1172-19.262-7.1602-3.0938-0.67969-8.2578-1.6992-11.352-2.3867-3.7852-1.0234-8.6016-2.3867-12.727-3.7461-4.4727-1.707-7.9102-2.7305-9.2891-2.7305s-2.7539-0.34375-3.0938-0.34375c-0.34766 0-1.7227 0-3.4414 0.34375zm346.05 49.77c-0.68359 4.0938-5.8477 12.957-9.2891 16.707-3.4414 3.4102-5.8477 5.1094-13.414 8.1836-18.922 8.8633-22.363 10.906-29.242 20.109l-3.7773 5.1172 0.68359 2.7227c1.3789 5.1172 3.0938 23.527 2.7539 29.316-0.34766 5.1172-2.0703 8.8672-4.8164 8.8672-1.0312 0-0.69141 0.67969 2.0625 3.7461 5.1562 6.1406 7.9102 11.258 11.004 19.773l1.3789 5.1172 1.7227-1.0234c4.8086-4.0938 23.047-12.613 44.719-21.484 16.852-6.8164 17.883-8.1836 18.23-24.543 0.34766-12.957-0.34766-17.387-4.125-27.957-4.8164-13.637-5.5078-15.68-6.1953-17.723 0-1.0234-1.0312-3.0742-2.0625-4.7734-5.8477-10.906-7.9102-15.68-8.6016-21.477-0.33984-2.043-0.68359-2.3867-1.0312-0.6875zm-689.02 0.6875c0 5.1094-7.2266 21.477-12.383 27.273-2.0625 2.043-1.7227 1.6992-2.4102 12.613-0.68359 10.906-0.68359 10.906-3.4414 17.043-2.7539 5.7969-2.7539 6.8164-2.7539 15.344 0 15.68 1.7227 17.723 22.016 25.562 16.859 6.4766 37.152 16.707 41.277 20.117 0.69141 1.0234 0.69141 1.3594 2.0703-2.7305 3.7773-10.914 5.5039-13.98 12.383-21.82l2.0625-2.3867-2.0625-1.0234c-1.7227-1.0234-2.4102-1.3633-2.7539-2.7305-2.0625-4.0859-1.0312-20.789 1.3789-33.746 1.0312-4.4297 1.3789-3.4102-2.7461-9.2031-6.5391-8.8633-9.6328-11.25-28.559-19.434-13.758-6.1406-18.578-11.25-22.703-23.52-0.68359-2.7305-1.3789-3.4102-1.3789-1.3633zm438.93 46.016c-1.7148 0.6875-3.7852 2.7305-4.4727 5.1172-3.0938 6.8164-12.035 44.66-15.477 66.137-1.0391 7.1602-2.0703 10.57-3.4414 11.594-0.69141 0.34375-0.34766 0.67969 1.3711 1.6992 8.6016 4.7734 9.9805 9.8906 9.9805 40.914 0 17.723 6.8789 41.93 13.758 49.426l2.4102 2.7305h28.551c80.84 0 117.98 3.7539 152.04 14.656 5.1562 1.707 9.9727 3.0664 11.695 3.0664 1.3789 0.34375 3.4414 0.6875 4.125 0.6875 5.8477 1.0234 11.695-28.637 8.6016-41.93l-1.0312-4.0938v-10.906c0-15.344-0.69141-24.207-2.7539-35.453-0.68359-2.7305-1.7227-7.8398-2.0625-11.594-0.69141-3.4102-1.7227-7.1602-2.0625-8.5273-0.34766-1.3594-1.0391-3.7461-1.3789-5.1094-1.3789-10.57-5.1641-18.41-12.043-26.25-2.0625-2.7305-4.8164-5.7969-5.8477-7.1602-4.125-5.1094-18.578-12.957-31.305-16.703-12.035-3.4102-24.766-6.1406-76.359-15-32.336-5.7969-62.953-11.594-69.488-13.301l-3.0938-1.0234-1.7227 1.0234zm-193.32 0c-2.7539 0.6875-27.172 5.7969-38.867 7.8477-3.7852 0.67969-9.6328 2.043-13.074 2.7227-3.4414 0.6875-16.852 3.0742-29.582 5.1172-62.957 11.25-69.141 12.613-87.371 23.863-4.8164 2.7227-5.8477 3.4102-6.8789 5.1094-0.69141 1.0273-2.7539 3.4102-4.4766 5.4609-6.1875 6.8164-7.9102 9.5391-10.66 16.703-2.4102 5.7969-2.7539 7.1602-3.4414 11.25-0.34766 2.043-1.0312 4.7734-1.3789 5.7969-0.34766 1.0234-1.0312 5.1172-2.0625 9.8828-0.69141 4.4375-1.7227 9.8906-2.0703 12.613-1.7148 8.8672-2.0625 12.957-2.4023 30-0.34766 15.344-0.34766 16.367-1.0391 18.754-3.4414 10.562 3.1016 42.953 7.918 40.906 0.33984 0 2.4102-0.34375 4.125-0.6875 3.4414-0.33594 5.1641-0.67969 15.82-4.0859 30.621-9.8828 72.242-13.637 150.33-13.637h26.488l1.3789-1.3633c5.1562-5.1094 8.9414-14.316 12.727-30.68 1.7148-8.8633 2.0625-10.57 2.4023-28.637 0.34766-19.09 0.34766-19.773 2.7539-24.883 1.3789-2.7305 5.1641-6.4766 7.2266-7.8398l1.7148-0.6875-1.0312-1.0234c-1.0312-1.3633-1.7148-3.7461-2.4102-9.2031-1.0312-5.7969-4.8086-24.543-7.9102-38.176-7.2266-33.066-9.6289-37.5-18.23-35.117zm471.61 42.957c-2.7539 6.1406-8.9492 10.227-21.332 15-17.547 6.4766-39.898 17.387-42.656 20.453-4.125 4.7734-4.125 6.8164-0.68359 23.863 2.0625 11.594 2.4102 13.98 2.7461 30 0 8.1836 0.34766 14.656 0.34766 14.656s1.3789-0.6875 2.7539-1.3633c3.0938-1.6992 6.1875-2.3867 11.695-3.0664 11.352-1.707 24.418-2.7305 33.707-2.7305 12.727 0 19.953-1.6992 23.738-5.1094 7.2188-7.1602 8.5977-20.453 3.0938-36.82-3.4414-10.914-5.5039-20.797-7.2266-32.73-1.3789-10.562-3.7773-23.863-4.8164-24.543 0 0-0.68359 1.0234-1.3711 2.3867zm-747.15 2.7305c-1.0312 4.4297-1.3789 4.4297-1.3789 14.316-0.33984 5.4531-0.33984 10.57-0.68359 11.25-0.68359 3.0664-2.4102 8.8633-5.1641 16.023-7.5664 22.16-8.5977 32.047-3.7773 41.93 3.7773 8.5273 7.9102 9.8906 28.551 10.57 12.727 0.34375 17.547 0.6875 28.551 2.3867 9.2891 1.0234 12.727 2.043 15.484 3.4102l2.4102 1.0234v-1.0234c0.68359-25.906 1.0312-32.047 2.7461-41.594 4.4727-21.477 4.1328-23.176-4.125-27.949-8.9414-5.4531-24.77-12.613-41.277-18.754-9.6328-3.7461-15.484-8.1758-18.578-13.637-1.7227-2.7227-1.3789-3.0664-2.7539 2.0508zm372.89 29.66c-3.7852 4.4297-5.1641 5.1094-15.484 7.1523-10.32 2.043-14.453 2.3867-29.582 3.0742-8.2578 0.67969-8.6016 0.67969-11.012 2.043-1.0312 0.33594-3.4414 1.3633-5.8477 2.3867-8.9414 3.4102-8.9414 3.7461-9.2891 25.562-0.33984 11.934-0.68359 17.73-1.0312 20.797-2.7461 18.754-7.9102 34.434-13.758 42.617-2.0625 2.7227-2.0625 2.043 0.34766 3.7539 5.8477 3.7461 9.2891 9.1992 16.852 27.273 7.5703 17.723 10.664 27.605 13.074 40.906 2.4102 14.656 6.1953 18.066 17.199 16.367 1.7148-0.34375 5.8477-1.0273 8.9414-1.3633 6.8789-1.0234 7.5703-1.3633 14.789-7.8398 7.9102-7.1602 9.6328-7.8477 18.922-7.8477 7.9102 0 9.6328 0.6875 17.199 7.8477 7.5664 6.8164 8.2578 7.4961 16.516 8.1758 17.883 2.0508 19.945 0.34375 23.047-18.066 1.7148-10.57 4.125-17.723 10.32-33.746 9.2891-22.504 12.727-27.613 19.609-32.387l1.7148-1.0234-1.7148-2.043c-5.8477-7.1602-11.012-21.82-14.105-41.594-0.34766-2.7227-0.68359-8.1836-0.68359-20.797-0.34766-23.176-0.34766-22.84-10.664-26.93-2.0625-1.0234-4.4727-2.043-5.1641-2.3867-1.7148-1.0234-7.2188-1.6992-22.703-3.0664-26.832-2.043-29.242-2.7305-33.02-8.8633-1.7227-3.0742-1.7227-3.0742-4.4727 0zm386.3 68.523c-6.5352 2.7227-14.105 3.7461-25.457 3.7461-15.477 0-35.082 2.3867-39.898 4.4297-2.0625 1.0273-6.5352 4.0938-6.5352 4.4375-0.34766 24.199-3.4414 38.52-9.2891 44.652-1.3789 1.3633-3.7852 2.7305-4.8164 2.7305-0.69141 0-0.69141 0.67969 0 2.043 2.4102 4.0938 2.7461 11.594 0.68359 17.387l-1.0312 3.0664h2.4102c1.3789 0.34375 5.8477 1.3633 9.9727 2.3867 19.609 4.7734 34.746 5.7969 50.91 3.0742 20.301-3.0742 25.457-8.1836 26.488-26.594 0.34766-5.7969 0.69141-9.2031 1.7227-15l1.3789-7.4961v-10.234l-0.34766-10.227-1.3789-7.1523c-0.68359-3.7539-1.3789-8.1836-1.7148-9.8906 0-1.3594-0.34766-2.7227-0.34766-2.7227s-1.3789 0.67969-2.7539 1.3633zm-771.57 2.3789c-0.34766 1.707-1.0312 5.1172-1.7227 7.1602-1.3711 6.8164-1.3711 9.2031 1.0391 15.68 2.7461 9.2031 3.0938 10.914 1.3711 24.551-2.7461 22.496 1.0312 31.703 14.789 36.133 16.516 5.1172 36.812 4.7734 61.23-1.0234 5.1641-1.0234 9.9805-2.043 10.664-2.3867h1.7227l-0.69141-1.6992c-2.4102-5.7969-2.4102-13.301 0.34766-18.066l1.0312-2.3867-2.0625-0.34375c-7.2266-2.3867-13.074-20.109-13.074-41.93v-5.4531l-1.7148-1.3633c-5.5078-4.7734-15.484-6.4805-45.062-7.5039-13.422-0.33594-20.984-1.3633-25.801-3.7461l-1.7148-1.0273-0.34766 3.4102zm229.78 39.551c-1.3711 0-7.5664 0.34375-13.758 0.67969-54.004 1.707-77.055 4.7734-106.29 13.98l-8.6016 2.7305-2.4102 3.0664c-4.125 5.1094-4.4727 8.8633-1.3789 15.68 0.69141 2.043 2.0703 5.4531 2.7539 7.5039 0.68359 2.043 1.7227 5.4531 2.4102 7.4961 1.3789 4.0938 4.8164 16.023 9.6328 31.703 9.9727 34.434 15.82 51.477 20.641 62.047 1.7148 3.4102 3.4414 7.1602 3.7773 8.5273 0.69141 2.3789 1.0312 2.7227 8.9492 12.613 7.9102 10.227 9.2891 11.25 17.539 12.27 8.2578 1.0234 9.2891 0.67969 22.363-3.7539 23.734-8.1836 50.91-12.27 87.719-12.957 2.0625 0 4.125 0 4.125-0.33594 1.0312-0.34375 6.1953-8.5273 22.707-35.117 4.8086-7.8398 9.2891-14.992 9.6289-15.336 0.34766-0.6875 2.0625-3.7539 3.7852-6.8164 6.5352-12.27 11.352-18.754 14.445-19.773 0 0 0-0.67969-1.0312-2.043-2.4102-4.0859-3.7773-7.8398-5.5039-17.387-2.0625-12.27-7.5664-27.613-16.516-46.703-4.8086-10.57-7.2188-13.637-14.098-17.043l-2.7539-1.0234h-27.863-30.273zm256.96 0.34375c-5.5039 0.67969-10.66 5.4531-14.445 12.613-8.9414 18.066-16.516 38.855-18.922 52.5-1.3711 8.5195-2.7461 12.949-5.5039 16.703-1.0312 1.6992-1.3789 1.6992 1.0312 3.0664 3.1016 2.3867 6.1953 7.1602 13.422 19.773 4.4727 8.1836 26.824 44.316 33.02 53.52l2.0625 3.0664h2.4102c1.3789 0 5.1641 0 8.2578 0.34375 3.0938 0 9.2891 0.34375 13.414 0.6875 30.621 1.3594 42.316 3.4102 68.805 11.926 12.727 4.4297 13.414 4.4297 20.293 3.7539 9.6328-1.0234 10.32-1.3633 19.953-13.637 6.5352-8.1836 6.5352-8.1836 7.9102-11.594 0.33984-1.707 2.4102-5.7969 3.7773-9.5469 1.7227-3.4102 3.7852-7.8398 4.4766-9.5391 2.0625-5.7969 15.129-47.047 20.293-65.113 1.3789-4.7734 3.7852-12.957 5.5039-17.73 1.3789-4.7734 3.1016-9.5469 3.4414-10.57 0.34766-0.67969 1.0312-3.0664 1.7227-4.7656 3.4414-8.1836 0.68359-16.367-6.1953-19.098-23.395-9.2031-48.156-13.293-91.496-15.336-4.1328-0.34375-11.012-0.6875-15.137-1.0234-8.6016-0.34375-75.336-0.6875-78.09 0zm-482.27 50.449c0 1.3633 0.68359 3.7539 1.7227 6.4805 1.3711 3.0664 1.7148 4.7734 2.0625 6.8164 0 1.6992 0.33984 4.4297 0.68359 6.4766 0 2.7305 0.34766 3.7539 2.0625 7.8398 4.1328 9.5469 6.8789 19.434 7.918 28.637 1.3711 11.25 1.7148 11.594 2.7461 13.637 0.34766 1.0234 2.0625 3.4102 3.4414 4.7734 5.5039 5.7969 5.5039 6.1406 7.9102 14.32 1.0312 3.0664 1.7227 4.0859 4.8164 5.4531 11.695 5.7969 28.895 6.1328 50.91 1.3633 13.074-3.0742 27.52-2.7305 35.082 0.33594 1.7227 0.6875 1.7227 0.6875 0.34766-2.043-1.3789-3.0664-4.8164-11.934-6.5352-17.387-1.0312-3.4102-1.7227-4.4297-2.0625-4.4297-1.0391-0.34375-3.7852-9.2031-11.695-35.797-5.1641-18.402-5.8477-19.766-8.9414-29.996l-2.7539-8.1836-2.0625-0.34375c-2.0703 0-3.7852 0-14.453 2.7305-23.387 6.1328-56.066 4.7734-70.172-2.3867l-1.3789-0.6875 0.34766 2.3867zm677.66-1.6992c-1.0312 1.6992-4.8164 13.98-12.383 39.887-6.8789 23.184-10.664 35.113-11.359 35.797-0.33984 0.33594-1.0312 2.043-1.7148 4.0859-1.7227 5.1172-3.7852 10.914-5.5039 15-1.3789 2.7305-1.7227 3.7539-1.0312 3.4102 4.4727-2.043 9.9727-2.7305 18.914-2.7305 7.9102 0 9.6328 0.34375 20.301 2.3867 19.609 4.0938 35.082 3.7539 46.434-1.0234 4.8164-2.043 5.1641-2.7227 6.5391-8.5195 1.7148-5.4609 2.4102-6.4805 7.2188-11.594 4.4727-4.7734 4.8164-5.7969 5.8477-15.688 1.0312-11.586 3.7852-20.789 9.2891-33.746 1.0312-2.7305 1.3789-3.7539 1.7227-8.8633 0.33984-5.4531 0.68359-6.8164 3.0938-12.613 0.34766-1.3633 1.0312-3.4102 1.0312-4.4297l0.34766-1.707-3.1016 1.0234c-17.199 6.8164-46.434 7.5039-71.203 1.0234-8.9414-2.043-14.098-2.7227-14.445-1.6992zm-296.52 23.52c-3.7773 0-4.4727 0.34375-9.2891 5.1172-7.2188 6.8164-10.32 8.5195-16.168 9.5391-5.5039 1.0273-13.758 2.3867-16.168 2.3867-7.2188 0.6875-11.691 1.3633-13.414 2.3867s-6.8789 8.8672-10.32 15.688c-1.7227 3.7461-4.4727 8.1758-10.664 18.066-2.4102 3.7461-6.8789 10.906-9.9727 16.023-3.4414 5.4531-8.6016 13.637-11.352 18.066-3.1016 4.7734-5.5078 8.8633-5.5078 8.8633-0.33984 2.3867 4.8164 29.316 6.5391 34.777 9.2891 34.77 13.414 45.68 18.23 52.5l1.7227 2.7227 3.7773-0.33594c2.0625 0 5.8477 0 8.6016-0.34375 7.5664-0.34375 9.9727-1.0234 19.262-8.1836 18.922-13.637 35.09-21.133 46.441-21.133 10.32 0 14.098 1.6992 44.371 19.434 14.789 8.5195 18.922 9.8828 31.652 9.8828h2.7461l2.0703-3.4102c4.125-5.7969 6.1875-11.25 10.32-25.906 1.0312-4.0938 2.7461-9.5469 3.4414-11.934 4.125-12.27 5.8477-21.133 9.2891-42.617l1.0312-5.7969-2.4102-3.7461c-3.4414-5.1172-12.043-18.754-20.301-32.047-10.66-17.043-12.383-20.117-14.789-24.883-4.125-7.8477-8.9414-15.344-10.664-16.023-0.33984 0-1.7148-0.34375-3.0938-0.6875-1.3789-0.34375-3.7852-0.67969-5.8477-1.0234-1.7148-0.34375-5.5039-1.0234-8.2578-1.0234-14.098-1.0234-16.168-2.043-24.762-10.227-6.1953-5.4531-8.6016-6.8164-12.727-6.4766-0.34766 0-2.0625 0-3.7852 0.33594zm-293.42 81.137c-19.609 4.4297-41.277 5.4531-50.91 2.3867l-2.7539-0.67969 0.34766 1.0234c0.34766 2.3867 1.3789 4.7734 4.1328 9.5469 3.7773 6.1328 4.4727 8.1758 4.8086 13.973v4.4297l2.0703 1.0273c3.7773 1.3594 4.8086 3.0664 8.5977 10.227 2.7539 5.1094 2.4102 5.1094 5.8477 5.7891 6.1953 1.0273 7.2266 3.7539 4.8164 11.594-0.34766 1.707-0.68359 3.0742-0.68359 3.4102 0 0.34375 1.3711 1.0234 3.4414 1.707 8.5977 2.7227 9.9727 4.0859 11.352 11.25 1.3711 8.1836 8.5977 12.613 20.293 12.613 21.332 0 33.367-1.707 40.246-6.1406 11.352-6.8164 11.352-6.8164 17.199-6.8164h4.1328l-2.4102-3.4102c-6.8789-10.562-11.352-19.434-10.664-21.477 0.34766-0.34375 0.34766-1.3633 0-2.7305-1.3789-5.1094 0-11.25 3.4414-14.316l1.7148-1.6992-1.7148-0.34375c-4.4727-1.3633-8.2578-4.0938-13.414-10.227-1.3789-2.043-4.8164-6.1406-7.2266-9.2031l-4.8164-6.1406-3.7852-2.043c-6.5352-3.7539-9.9727-4.4297-21.672-4.7734l-6.1875-0.34375-6.1953 1.3633zm571.37-1.0234c-6.5352 0.6875-8.9414 1.3633-12.383 3.0664-5.5078 2.7305-7.2266 4.4375-15.828 15.688-6.5352 8.5195-10.656 11.926-15.82 13.293l-1.7148 0.6875 1.7148 1.6992c7.2266 7.4961 4.1328 21.477-8.2578 38.863-1.3711 1.3633-2.0625 2.7305-2.0625 3.0664h4.8164 4.8164l2.7461 1.3633c1.7227 0.6875 4.4766 2.043 6.1953 3.4102 9.2891 5.7969 10.664 6.1406 29.582 7.5039 10.664 0.67969 19.953 0.67969 22.707-0.34375 5.5039-1.707 10.32-5.7969 11.004-8.5273 1.7227-9.8828 2.4102-10.906 10.32-13.973 6.8789-2.7305 6.5352-2.3867 9.2891-10.57 2.7539-7.5039 6.5352-15 11.695-22.16 2.4102-3.0664 2.7539-4.0859 3.7852-7.4961 1.3711-4.4297 2.7461-7.5039 5.8477-12.613 2.7461-5.1172 5.1562-10.57 4.125-10.57 0 0-1.3789 0.34375-3.4414 1.0234-6.8789 1.707-22.363 2.3867-31.305 1.0234-0.68359 0-3.0938-0.33594-5.1562-0.67969-4.1328-0.6875-8.2578-1.3633-14.105-2.7305-4.4727-1.0234-13.074-1.6992-18.578-1.0234zm-398 17.73c-1.3711 0-6.5352 0.33594-11.352 0.67969-23.047 1.0234-35.43 2.3867-48.156 5.7969-7.9102 2.043-31.645 9.5469-35.43 11.25-1.3789 0.6875-4.1328 2.043-5.8477 2.7305-4.1328 1.6992-5.5039 3.4102-5.5039 7.1523 0 2.7305 4.125 11.934 7.9102 17.387 6.8789 10.227 8.2578 12.613 8.9414 13.98 0.34766 1.3633 6.5352 9.8828 11.352 15.68 1.3789 1.707 5.5039 5.7969 8.6016 8.8672 12.035 11.586 21.324 20.789 26.141 26.586 6.1953 7.1602 7.5664 8.5273 12.043 10.914 1.7148 1.0234 4.8086 3.0664 6.8789 4.4297l3.7773 2.043h5.8477c4.8164 0 6.1953 0 6.1953-0.34375 0.34766-0.33594 1.7148-1.6992 3.7852-3.4102 1.7148-1.3594 5.8477-4.7656 8.9414-7.4961 13.066-11.594 28.203-23.527 30.957-24.551 0.34766 0 0.34766-0.67969-0.68359-2.043-3.1016-4.0859-5.8477-10.906-11.012-27.613-1.7148-6.4766-4.125-14.316-4.8164-17.043-3.7773-12.613-5.8477-21.82-7.9102-34.434-1.7148-12.27-1.0312-11.586-10.664-10.562zm234.61 0c-0.34766 0.33594-0.69141 2.7227-1.0312 4.7656-4.1328 28.301-16.516 72.617-23.738 83.523-0.68359 0.6875-0.33984 0.6875 0.69141 1.3633 3.7773 1.3633 9.2891 6.1406 23.734 20.453 16.168 15.688 17.891 16.711 25.457 17.043h5.1641l2.0625-1.3594c1.0312-0.6875 4.125-2.3867 6.5352-3.7539 5.1641-3.0664 7.2266-4.4297 14.105-12.613 5.8477-6.8164 12.035-12.957 24.426-24.883 4.125-4.0938 8.5977-8.8672 9.9727-10.227 1.3789-1.707 4.125-5.1172 6.1953-7.8477 2.0625-2.7227 4.4727-6.1328 5.5039-8.1758 0.68359-1.707 3.4414-5.7969 5.5039-9.2031 6.8789-9.5469 10.664-17.73 10.664-22.16 0-3.7539-1.3789-5.1094-6.1953-7.1602-1.7148-0.67969-3.7852-1.3594-4.8164-2.043-3.4414-1.3633-29.234-9.8828-35.777-11.594-12.727-3.0664-25.109-4.4297-47.812-5.4531-4.8164-0.34375-10.32-0.67969-12.383-0.67969-6.1953-0.6875-7.918-0.6875-8.2578 0zm-466.11 7.8398c-26.141 23.52-28.551 42.273-8.25 66.477 1.0312 1.3594 2.7461 3.4102 3.7773 4.7656 4.1328 5.1172 13.074 9.2031 24.078 11.594 17.199 3.4102 26.488 3.4102 35.438 0 4.125-1.6992 3.7773-1.0234 3.0938-5.1094-0.68359-1.707-1.0312-4.0938-1.0312-5.4531l-0.34766-2.3867-2.7539-1.3633c-7.5664-3.7539-11.352-8.1836-12.383-15.68-0.68359-3.4102-1.0312-3.7539-5.5039-5.1172-9.2891-3.0664-11.352-6.4766-8.6016-14.656l0.69141-2.043-1.7227-0.34375c-3.4414-0.34375-5.5039-2.7305-9.6289-10.57-2.7539-5.1094-2.7539-5.1094-5.1641-5.7969-4.125-1.6992-5.1562-3.4102-5.8477-11.25-0.33984-4.4297-0.68359-6.8164-1.3789-6.8164 0 0-2.0625 1.707-4.4727 3.7539zm701.4-2.043c-0.34766 0.67969-1.3789 3.0664-2.0703 5.4531-1.0312 3.0664-1.7148 4.4297-3.0938 6.4766-5.5039 8.1836-9.2891 14.656-11.695 21.141-2.7461 7.4961-3.0938 8.5195-4.125 10.227-1.3789 2.043-3.1016 3.4102-8.9414 5.4531-5.8477 2.3867-5.5078 2.3867-6.1953 6.8164-1.3789 6.8164-6.5352 12.957-14.105 15.68l-1.3789 0.6875-0.33984 3.4102c0 2.3867-0.69141 5.1094-1.7227 8.5195-0.68359 2.3867 12.043 5.4531 20.984 5.1172 18.578-0.6875 35.082-5.7969 41.969-12.957 11.691-12.613 19.262-27.273 18.57-36.477-1.0312-13.98-8.25-24.883-26.488-39.543l-1.0312-1.0273-0.33984 1.0273zm-725.82 45.34c-11.012 7.4961-4.1328 23.863 8.25 20.109 2.4102-0.67969 2.4102-0.67969 0.34766-3.7461-2.7539-4.4375-7.2266-13.98-7.2266-16.023 0-1.0273-0.33984-1.0273-1.3711-0.34375zm754.71 2.7227c-0.68359 3.0742-4.125 10.234-7.2188 15-2.0625 3.4102-2.0625 3.4102 0 4.0938 11.352 3.7539 19.609-11.594 10.32-18.754-2.4102-2.043-2.7539-2.043-3.1016-0.34375zm-765.38 8.8672c-15.82 12.949-24.078 29.996-19.262 39.199 1.0312 2.3867 1.0312 2.3867 4.8086-1.6992 6.8789-7.8398 17.547-18.754 25.801-25.57l1.3789-1.0234-2.0625-1.0234c-4.4766-1.6992-7.2266-5.4531-7.918-10.57v-1.6992zm774.66 1.0234c0 3.7539-3.7773 8.8633-7.5664 10.57-2.4102 1.0234-2.4102 0.67969 1.0312 3.7461 4.1328 3.4102 19.953 19.098 23.734 23.863l3.4453 3.7539 0.68359-0.67969c6.5352-8.1836-2.0625-27.613-17.891-40.227-3.4414-2.7305-3.4414-2.7305-3.4414-1.0234zm-390.43 3.7539c-6.5352 1.3594-24.418 10.562-39.555 20.109-13.074 8.5195-14.453 8.8633-27.18 9.2031-11.004 0-15.137 2.043-35.43 20.109-3.7852 3.4102-9.6328 8.1836-12.727 10.914-7.2266 6.4766-7.2266 5.4531-2.7539 10.906 15.484 18.41 49.195 33.066 90.129 39.207 18.922 2.7227 23.395 4.0859 30.621 8.8633 3.4414 2.3867 3.0938 2.3867 9.6289-0.67969 6.1953-3.0742 3.7852-2.3867 26.832-8.1836 33.715-8.1836 61.918-18.066 75.336-26.25 4.125-2.7305 5.1562-3.7539 8.9414-8.8633 1.7148-2.3867 4.125-5.4609 5.1562-6.8164 1.0312-1.3633 2.0703-2.7305 2.0703-2.7305-0.34766 0-1.7227-1.3633-3.7852-2.7305-4.8164-4.0859-6.8789-5.7969-19.953-18.41-16.168-15.336-15.82-14.992-24.762-15.68-21.676-2.043-20.984-2.043-42.656-14.656-14.105-8.1836-22.363-12.613-23.395-12.613-0.68359 0-1.3789 0-1.7227-0.34375-2.7461-1.3594-11.352-2.3867-14.789-1.3594zm-228.41 0.67969c-1.0391 0.67969-3.4414 2.043-5.5078 3.4102-7.2188 4.4297-12.727 6.4766-18.914 6.8164-7.9102 1.0234-23.738 1.707-25.109 1.3633-1.0391 0-2.7539-0.34375-4.1328-0.34375h-2.0625v1.0234c0 5.1172 1.7148 7.5039 11.695 17.387 9.2891 9.2031 12.383 12.957 19.945 22.84l5.1641 6.8164h3.4414c5.1641 0.34375 6.1953 1.0234 10.664 7.8398 5.1562 7.5039 8.5977 10.914 13.414 13.301l1.0312 0.67969 0.69141-2.043c1.7148-4.0938 5.5039-6.4805 14.098-9.2031 10.664-3.4102 35.09-8.5273 45.41-9.5469l2.7539-0.34375-3.1016-2.7227c-1.7148-1.3633-5.5039-5.7969-8.9414-9.5469-3.0938-3.7539-9.2891-9.8828-13.074-13.98-17.199-16.023-20.641-19.766-26.141-26.93l-5.1562-7.1602h-4.8164c-2.7539-0.33594-5.8477-0.33594-7.2266-0.33594-2.0625-0.34375-2.4102-0.34375-4.125 0.67969zm452.34-0.67969h-3.4414l-4.4727 5.7891c-5.8477 8.1836-9.2891 11.934-16.859 19.098-10.66 9.8828-17.539 16.703-22.703 22.496-5.5039 6.4766-9.2891 10.227-11.352 11.594-1.3789 1.0234-1.3789 1.3633 0 1.3633 5.8477 0 36.121 6.4766 47.473 9.8828 8.5977 2.7305 13.066 5.7969 14.105 9.5469l0.33984 2.043 3.7852-2.3867c4.4727-3.0664 5.5039-4.4297 9.6328-9.8828 5.8477-8.8672 6.8789-9.5469 12.035-9.8906h3.4414l5.1641-6.8164c7.2188-9.5391 11.695-14.316 20.641-23.176 9.2891-9.2031 11.004-11.934 11.004-16.707v-1.0234l-6.8789 0.34375c-23.047 0.34375-33.715-1.707-45.402-9.5469-5.1641-3.4102-4.1328-3.0664-16.516-2.7227zm-586.5 8.1758c-3.7852 4.4375-3.7852 7.8477-1.0312 11.258 3.4414 3.7461 7.9102 3.7461 11.695 0l2.0625-2.0508-2.0625-1.3594c-1.0312-1.0273-3.1016-3.0742-4.4727-4.7734-1.3789-1.707-3.1016-3.7539-3.4414-4.4297l-1.0312-0.6875-1.7227 2.043zm729.95 2.3867c-2.7461 3.4102-6.1875 6.8164-7.5664 7.8398l-1.0312 0.34375 1.7148 1.707c3.4414 4.0859 8.9492 4.0859 12.043 0.33594 2.7539-3.4102 2.4102-6.8164-1.0312-11.25-2.0625-2.3867-1.7227-2.3867-4.1328 1.0234zm-736.48 9.2031c-7.5703 11.594-9.6328 25.227-4.4727 30.344 1.3711 1.3633 1.3711 1.3633 2.7461-1.707 2.7539-6.1328 7.2266-14.656 11.012-20.453 2.4102-4.0859 2.4102-4.0859 0.68359-4.0859-2.4102 0-6.5352-3.0742-7.5664-5.7969l-0.69141-1.0234-1.7148 2.7227zm744.4 0.6875c-1.0391 2.7227-5.1641 5.1094-8.2578 5.1094-0.69141 0-0.69141 0.34375 0.68359 2.3867 3.7852 5.4531 9.6328 16.367 12.383 22.84 1.0312 2.7305 1.0312 2.7305 2.7539 0.6875 4.8164-5.4609 2.7539-17.73-4.4727-29.664-2.4102-3.4102-2.0625-3.4102-3.0938-1.3594zm-723.07 1.0234c-4.8164 10.227 8.6016 16.023 14.105 6.1328 1.7148-3.0664 1.7148-2.7227-0.34766-3.4102-3.0938-0.67969-7.5664-2.3867-10.32-3.7461l-2.4102-1.0234-1.0312 2.043zm700.71 0.67969c-2.4102 1.3633-6.8789 3.0664-10.32 3.7539-1.7227 0.67969-1.7227 0.34375 0.34766 3.7539 5.1562 9.5391 18.578 3.0664 13.758-6.4805-1.0312-2.3867-1.0312-2.3867-3.7852-1.0234zm-681.11 3.7539c-0.34766 0.67969-1.7148 6.1406-1.7148 7.8398 0 8.1836 11.352 9.2031 14.098 1.0234 1.0391-3.7539 1.7227-7.1602 1.3789-7.1602 0 0-2.0625-0.33594-3.7852-0.67969-2.0625 0-4.8086-0.34375-6.5352-0.67969-3.0938-0.6875-3.0938-0.6875-3.4414-0.34375zm27.18 1.3633s-2.4102 0.33594-5.5078 0.33594l-5.5039 0.34375-0.34766 1.3633c-0.33984 1.6992 0 8.8633 0.69141 10.227 3.0938 5.7969 12.035 4.0859 12.383-2.3867 0.34766-7.1602-0.34766-11.25-1.7148-9.8828zm633.63 0.67969c-1.3789 0.34375-4.1328 0.67969-6.1953 1.0234l-3.4414 0.34375 1.0312 4.0859c1.7227 6.8164 3.4414 8.8672 7.9102 8.8672 5.5039 0 7.9102-4.7734 5.8477-11.934-0.68359-3.0664-1.0312-3.0664-5.1562-2.3867zm-24.426 5.4531c-0.34766 8.8672 1.3789 11.594 6.8789 11.25 5.1562-0.33594 7.2266-5.4531 6.1875-13.637l-0.33984-1.3594-4.8164-0.34375c-2.7539 0-5.8477-0.34375-6.5352-0.34375l-1.3789-0.34375v4.7734zm-659.09-0.67969c-4.8164 13.293-4.4727 26.25 1.3789 30.336 2.0625 1.3633 2.4102 1.3633 2.4102-0.33594 0.68359-3.7539 3.7773-14.664 5.8477-21.141 1.3711-3.7539 2.4023-6.8164 2.4023-6.8164h-2.0625c-2.4102 0-5.1562-0.67969-7.2266-3.0664l-1.7148-1.707-1.0312 2.7305zm708.28 0.34375c-1.3789 2.043-4.4727 3.4102-7.2266 3.4102h-2.4102s1.0391 3.0664 2.4102 6.8164c2.0703 6.1328 5.1641 17.379 5.8477 21.133 0.34766 1.707 0.34766 1.707 1.7227 0.6875 6.5352-4.0938 7.2266-21.484 1.3789-32.73l-0.34766-0.67969-1.3789 1.3633zm-686.95 7.4961c-0.33984 1.0234-0.68359 8.1836-0.68359 11.594 0.68359 9.2031 4.4727 15.68 9.6328 17.043 0.68359 0.34375 0.68359 0.34375 0.68359-9.5469 0.34766-8.8633 0.68359-15 1.3789-17.379 0-0.6875 0-0.6875-1.0312-0.34375-2.7539 1.0234-7.2266 0.34375-9.2891-1.3633-0.34766-0.67969-0.69141-0.67969-0.69141 0zm666.31 2.043c-2.0625 1.707-5.8477 2.043-8.6016 0.6875-0.68359 0-0.68359 0-0.68359 0.67969 0.68359 2.3867 1.0312 8.8633 1.3789 17.387v9.8828l1.0312-0.34375c6.1953-1.6992 10.32-12.605 9.2891-24.543-0.34766-1.707-0.34766-3.7539-0.34766-4.0859 0-0.6875-0.68359-0.6875-2.0625 0.33594zm-646.71 3.0742c0.69141 9.5391 5.1641 18.066 9.9805 19.09 1.7148 0.67969 1.7148 0.67969 0.68359-4.0938-1.0312-5.1094-1.7148-9.8828-2.0625-13.637-0.34766-2.3867-0.34766-2.7227-0.69141-2.7227-1.3711 0.67969-5.1562 0.67969-6.8789 0.33594l-1.3711-0.67969zm627.1 0.67969c-1.3789 0.34375-4.125 0.34375-5.8477-0.34375-0.68359 0-1.0312 0-1.0312 1.0234 0 3.0742-1.7227 15-2.7539 18.754-1.0312 3.0664 4.8164-0.34375 7.2266-4.0859 2.4102-3.7539 5.5039-16.367 4.1328-16.023 0 0-0.69141 0.33594-1.7227 0.67969zm-468.18 22.84c-15.129 0.67969-36.809 4.4297-52.281 9.5469-6.8789 2.3867-7.9102 3.4102-7.9102 7.4961 0 2.7305 7.9102 7.8398 18.914 11.594 7.2266 2.3867 11.012 4.7734 19.953 11.25 1.7148 1.707 6.5352 4.4297 10.32 6.8164 6.1953 3.4102 8.2578 4.7734 14.789 9.8828 4.1328 3.4102 10.32 8.1836 13.414 10.227 3.1016 2.3867 7.5703 5.7969 9.9805 7.8477 7.5664 5.4531 9.6289 6.4766 13.066 4.7656 3.7852-1.6992 19.953-16.359 26.832-24.199 5.8477-6.4805 8.2578-8.1836 16.516-10.914l4.125-1.3633-3.4414-1.3594c-30.613-9.2031-57.793-27.613-62.262-41.25 0-0.6875-8.5977-1.0234-22.016-0.34375zm293.43 0.34375c-4.1328 0.33594-5.5078 1.6992-13.074 12.27-5.1562 7.1602-8.2578 9.5469-20.293 15.344-9.2891 4.4297-20.301 8.8633-30.621 12.27l-7.2188 2.3867 4.125 1.3594c7.5664 2.7305 9.9727 4.0938 13.758 7.5039 1.7148 2.043 5.1562 5.7969 7.9102 8.5195 11.695 11.934 21.672 20.117 24.77 20.117 1.7148 0 4.8086-1.3633 7.5664-3.7539 22.363-16.703 21.332-16.023 31.652-21.133 7.9102-4.4297 8.5977-4.7734 10.32-7.1602 2.4102-3.4102 4.4727-4.7734 13.066-7.5039 5.5039-1.6992 5.1641-1.6992 6.1953-4.4297 1.0312-4.0859 2.0625-4.7656 9.9727-7.4961 7.2266-2.3867 13.758-5.7969 17.199-8.8633l1.7227-1.3633v-2.3867c-0.34766-3.0664-0.69141-3.4102-4.1328-4.7734-6.5352-2.7227-29.234-8.1836-43.34-10.57-4.125-0.67969-25.109-1.0234-29.582-0.33594zm-93.223 47.727c-0.69141 0.34375-7.918 2.043-9.6328 2.7305-0.34766 0-0.68359 0-0.34766-0.34375 1.0312-2.043-19.609 4.0859-25.457 7.4961l-2.7461 1.3633v9.5469c0 12.613 0.68359 27.273 1.0312 28.637 1.0312 1.3594 2.4102 2.043 10.664 4.0859 15.82 3.7539 20.977 4.0859 34.051 1.707 6.5352-1.3633 9.6328-2.3867 35.777-12.277 5.8477-2.043 12.383-4.7734 14.789-5.4531l4.1328-1.3633-1.0391-0.67969c-5.1562-3.7539-19.945-18.066-23.734-22.496-4.4727-5.4609-10.664-8.5273-22.363-10.914-8.25-1.6992-12.719-2.3867-15.129-2.043zm-99.07 0.67969c-7.918 1.3633-16.168 3.7539-20.984 5.7969-2.7539 1.3633-3.7852 2.3867-9.2891 8.5273-3.7852 4.0859-11.012 10.906-19.262 18.066-2.0703 1.6992-3.7852 3.4102-3.4414 3.4102 0.33984 0 2.0625 0.67969 4.125 1.3633 4.125 1.3633 13.414 4.7734 25.801 9.5391 17.199 6.4805 20.293 7.5039 30.266 8.8672 14.105 1.6992 19.609 1.6992 26.148-0.34375 2.7461-1.0234 7.2188-2.043 9.9727-2.3867 11.695-2.043 10.664 2.043 9.2891-34.777v-7.4961l-2.4102-1.3633c-7.5664-4.7734-12.383-6.1328-27.172-8.1836-4.1328-0.67969-5.1641-1.0234-5.1641-0.33594-0.34766 0.33594 0 0.33594-4.8164-0.34375-4.8164-0.67969-8.5977-1.0234-13.066-0.34375zm55.035 57.961c-2.4102 1.0234-3.7852 1.3594-10.32 2.7227-4.1328 1.0234-9.2891 2.043-11.352 2.7305-3.4414 1.3633-4.1328 1.3633-7.9102 1.3633-4.4766 0-4.1328-0.6875-2.4102 6.1328 14.789 59.66 57.445 106.71 112.14 124.43 6.5391 2.0508 6.5391 2.0508 4.4727 0-20.293-22.496-33.707-46.016-43.34-74.652-6.1953-18.074-8.9414-32.387-11.352-55.23v-1.6992l-4.4727-1.0273c-7.5703-1.3594-17.891-4.0859-20.301-5.1094-2.4102-1.3633-2.0625-1.3633-5.1562 0.34375z" fill="#312a29" fill-rule="evenodd"/>
</svg>
